<?xml version="1.0" standalone="no"?>
<!DOCTYPE svg PUBLIC "-//W3C//DTD SVG 1.1//EN"
"http://www.w3.org/Graphics/SVG/1.1/DTD/svg11.dtd">
<svg width="289.988" height="268.868" viewBox="0 0 6041.42 5601.42" version="1.1"
xmlns="http://www.w3.org/2000/svg"
xmlns:xlink="http://www.w3.org/1999/xlink">
<g fill-rule="evenodd"><path d="M 217.717,1320.71 L 218.927,1308.42 L 222.512,1296.6 L 228.333,1285.71 L 236.167,1276.17 L 245.712,1268.33 L 256.603,1262.51 L 268.42,1258.93 L 280.709,1257.72 L 292.998,1258.93 L 304.815,1262.51 L 315.705,1268.33 L 325.251,1276.17 L 333.085,1285.71 L 338.906,1296.6 L 342.49,1308.42 L 343.701,1320.71 L 342.49,1333 L 338.906,1344.81 L 333.085,1355.71 L 325.251,1365.25 L 315.705,1373.08 L 304.815,1378.91 L 292.998,1382.49 L 280.709,1383.7 L 268.42,1382.49 L 256.603,1378.91 L 245.712,1373.08 L 236.167,1365.25 L 228.333,1355.71 L 222.512,1344.81 L 218.927,1333 L 217.717,1320.71 z " style="fill-opacity:1.000000;fill:rgb(103,198,105);stroke:rgb(0,0,0);stroke-width:2"/></g>
<g fill-rule="evenodd"><path d="M 325.039,3821.5 L 326.25,3809.21 L 329.834,3797.39 L 335.655,3786.5 L 343.489,3776.95 L 353.035,3769.12 L 363.925,3763.3 L 375.742,3759.71 L 388.031,3758.5 L 451.024,3758.5 L 463.313,3759.71 L 475.13,3763.3 L 486.02,3769.12 L 495.566,3776.95 L 503.4,3786.5 L 509.221,3797.39 L 512.805,3809.21 L 514.016,3821.5 L 512.805,3833.79 L 509.221,3845.6 L 503.4,3856.49 L 495.566,3866.04 L 486.02,3873.87 L 475.13,3879.69 L 463.313,3883.28 L 451.024,3884.49 L 388.031,3884.49 L 375.742,3883.28 L 363.925,3879.69 L 353.035,3873.87 L 343.489,3866.04 L 335.655,3856.49 L 329.834,3845.6 L 326.25,3833.79 L 325.039,3821.5 z " style="fill-opacity:1.000000;fill:rgb(115,81,255);stroke:rgb(0,0,0);stroke-width:2"/></g>
<g fill-rule="evenodd"><path d="M 325.039,3621.5 L 326.25,3609.21 L 329.834,3597.39 L 335.655,3586.5 L 343.489,3576.95 L 353.035,3569.12 L 363.925,3563.3 L 375.742,3559.71 L 388.031,3558.5 L 451.024,3558.5 L 463.313,3559.71 L 475.13,3563.3 L 486.02,3569.12 L 495.566,3576.95 L 503.4,3586.5 L 509.221,3597.39 L 512.805,3609.21 L 514.016,3621.5 L 512.805,3633.79 L 509.221,3645.6 L 503.4,3656.49 L 495.566,3666.04 L 486.02,3673.87 L 475.13,3679.69 L 463.313,3683.28 L 451.024,3684.49 L 388.031,3684.49 L 375.742,3683.28 L 363.925,3679.69 L 353.035,3673.87 L 343.489,3666.04 L 335.655,3656.49 L 329.834,3645.6 L 326.25,3633.79 L 325.039,3621.5 z " style="fill-opacity:1.000000;fill:rgb(74,236,41);stroke:rgb(0,0,0);stroke-width:2"/></g>
<g fill-rule="evenodd"><path d="M 325.039,3421.5 L 326.25,3409.21 L 329.834,3397.39 L 335.655,3386.5 L 343.489,3376.95 L 353.035,3369.12 L 363.925,3363.3 L 375.742,3359.71 L 388.031,3358.5 L 451.024,3358.5 L 463.313,3359.71 L 475.13,3363.3 L 486.02,3369.12 L 495.566,3376.95 L 503.4,3386.5 L 509.221,3397.39 L 512.805,3409.21 L 514.016,3421.5 L 512.805,3433.79 L 509.221,3445.6 L 503.4,3456.49 L 495.566,3466.04 L 486.02,3473.87 L 475.13,3479.69 L 463.313,3483.28 L 451.024,3484.49 L 388.031,3484.49 L 375.742,3483.28 L 363.925,3479.69 L 353.035,3473.87 L 343.489,3466.04 L 335.655,3456.49 L 329.834,3445.6 L 326.25,3433.79 L 325.039,3421.5 z " style="fill-opacity:1.000000;fill:rgb(205,186,171);stroke:rgb(0,0,0);stroke-width:2"/></g>
<g fill-rule="evenodd"><path d="M 325.039,3284.49 L 325.039,3158.5 L 514.016,3158.5 L 514.016,3284.49 L 325.039,3284.49 z " style="fill-opacity:1.000000;fill:rgb(242,251,227);stroke:rgb(0,0,0);stroke-width:2"/></g>
<g fill-rule="evenodd"><path d="M 442.598,2120.71 L 444.868,2097.67 L 451.589,2075.51 L 462.504,2055.09 L 477.192,2037.19 L 495.09,2022.5 L 515.51,2011.59 L 537.666,2004.87 L 560.709,2002.6 L 583.751,2004.87 L 605.907,2011.59 L 626.327,2022.5 L 644.225,2037.19 L 658.914,2055.09 L 669.828,2075.51 L 676.549,2097.67 L 678.819,2120.71 L 676.549,2143.75 L 669.828,2165.91 L 658.914,2186.33 L 644.225,2204.23 L 626.327,2218.91 L 605.907,2229.83 L 583.751,2236.55 L 560.709,2238.82 L 537.666,2236.55 L 515.51,2229.83 L 495.09,2218.91 L 477.192,2204.23 L 462.504,2186.33 L 451.589,2165.91 L 444.868,2143.75 L 442.598,2120.71 z " style="fill-opacity:1.000000;fill:rgb(70,124,194);stroke:rgb(0,0,0);stroke-width:2"/></g>
<g fill-rule="evenodd"><path d="M 442.598,1838.82 L 442.598,1602.6 L 678.819,1602.6 L 678.819,1838.82 L 442.598,1838.82 z " style="fill-opacity:1.000000;fill:rgb(84,248,27);stroke:rgb(0,0,0);stroke-width:2"/></g>
<g fill-rule="evenodd"><path d="M 442.598,920.709 L 444.868,897.666 L 451.589,875.51 L 462.504,855.09 L 477.192,837.192 L 495.09,822.504 L 515.51,811.589 L 537.666,804.868 L 560.709,802.598 L 583.751,804.868 L 605.907,811.589 L 626.327,822.504 L 644.225,837.192 L 658.914,855.09 L 669.828,875.51 L 676.549,897.666 L 678.819,920.709 L 676.549,943.751 L 669.828,965.907 L 658.914,986.327 L 644.225,1004.23 L 626.327,1018.91 L 605.907,1029.83 L 583.751,1036.55 L 560.709,1038.82 L 537.666,1036.55 L 515.51,1029.83 L 495.09,1018.91 L 477.192,1004.23 L 462.504,986.327 L 451.589,965.907 L 444.868,943.751 L 442.598,920.709 z " style="fill-opacity:1.000000;fill:rgb(232,231,141);stroke:rgb(0,0,0);stroke-width:2"/></g>
<g fill-rule="evenodd"><path d="M 442.598,638.819 L 442.598,402.598 L 678.819,402.598 L 678.819,638.819 L 442.598,638.819 z " style="fill-opacity:1.000000;fill:rgb(118,90,46);stroke:rgb(0,0,0);stroke-width:2"/></g>
<g fill-rule="evenodd"><path d="M 487.244,4394.17 L 487.244,4327.24 L 554.173,4327.24 L 554.173,4394.17 L 487.244,4394.17 z " style="fill-opacity:1.000000;fill:rgb(99,51,159);stroke:rgb(0,0,0);stroke-width:2"/></g>
<g fill-rule="evenodd"><path d="M 527.244,2754.17 L 527.244,2687.24 L 594.173,2687.24 L 594.173,2754.17 L 527.244,2754.17 z " style="fill-opacity:1.000000;fill:rgb(201,154,102);stroke:rgb(0,0,0);stroke-width:2"/></g>
<g fill-rule="evenodd"><path d="M 642.598,5158.82 L 642.598,4922.6 L 878.819,4922.6 L 878.819,5158.82 L 642.598,5158.82 z " style="fill-opacity:1.000000;fill:rgb(50,13,183);stroke:rgb(0,0,0);stroke-width:2"/></g>
<g fill-rule="evenodd"><path d="M 925.039,3821.5 L 926.25,3809.21 L 929.834,3797.39 L 935.655,3786.5 L 943.489,3776.95 L 953.035,3769.12 L 963.925,3763.3 L 975.742,3759.71 L 988.031,3758.5 L 1051.02,3758.5 L 1063.31,3759.71 L 1075.13,3763.3 L 1086.02,3769.12 L 1095.57,3776.95 L 1103.4,3786.5 L 1109.22,3797.39 L 1112.81,3809.21 L 1114.02,3821.5 L 1112.81,3833.79 L 1109.22,3845.6 L 1103.4,3856.49 L 1095.57,3866.04 L 1086.02,3873.87 L 1075.13,3879.69 L 1063.31,3883.28 L 1051.02,3884.49 L 988.031,3884.49 L 975.742,3883.28 L 963.925,3879.69 L 953.035,3873.87 L 943.489,3866.04 L 935.655,3856.49 L 929.834,3845.6 L 926.25,3833.79 L 925.039,3821.5 z " style="fill-opacity:1.000000;fill:rgb(49,88,163);stroke:rgb(0,0,0);stroke-width:2"/></g>
<g fill-rule="evenodd"><path d="M 925.039,3621.5 L 926.25,3609.21 L 929.834,3597.39 L 935.655,3586.5 L 943.489,3576.95 L 953.035,3569.12 L 963.925,3563.3 L 975.742,3559.71 L 988.031,3558.5 L 1051.02,3558.5 L 1063.31,3559.71 L 1075.13,3563.3 L 1086.02,3569.12 L 1095.57,3576.95 L 1103.4,3586.5 L 1109.22,3597.39 L 1112.81,3609.21 L 1114.02,3621.5 L 1112.81,3633.79 L 1109.22,3645.6 L 1103.4,3656.49 L 1095.57,3666.04 L 1086.02,3673.87 L 1075.13,3679.69 L 1063.31,3683.28 L 1051.02,3684.49 L 988.031,3684.49 L 975.742,3683.28 L 963.925,3679.69 L 953.035,3673.87 L 943.489,3666.04 L 935.655,3656.49 L 929.834,3645.6 L 926.25,3633.79 L 925.039,3621.5 z " style="fill-opacity:1.000000;fill:rgb(90,37,93);stroke:rgb(0,0,0);stroke-width:2"/></g>
<g fill-rule="evenodd"><path d="M 925.039,3421.5 L 926.25,3409.21 L 929.834,3397.39 L 935.655,3386.5 L 943.489,3376.95 L 953.035,3369.12 L 963.925,3363.3 L 975.742,3359.71 L 988.031,3358.5 L 1051.02,3358.5 L 1063.31,3359.71 L 1075.13,3363.3 L 1086.02,3369.12 L 1095.57,3376.95 L 1103.4,3386.5 L 1109.22,3397.39 L 1112.81,3409.21 L 1114.02,3421.5 L 1112.81,3433.79 L 1109.22,3445.6 L 1103.4,3456.49 L 1095.57,3466.04 L 1086.02,3473.87 L 1075.13,3479.69 L 1063.31,3483.28 L 1051.02,3484.49 L 988.031,3484.49 L 975.742,3483.28 L 963.925,3479.69 L 953.035,3473.87 L 943.489,3466.04 L 935.655,3456.49 L 929.834,3445.6 L 926.25,3433.79 L 925.039,3421.5 z " style="fill-opacity:1.000000;fill:rgb(5,23,88);stroke:rgb(0,0,0);stroke-width:2"/></g>
<g fill-rule="evenodd"><path d="M 925.039,3221.5 L 926.25,3209.21 L 929.834,3197.39 L 935.655,3186.5 L 943.489,3176.95 L 953.035,3169.12 L 963.925,3163.3 L 975.742,3159.71 L 988.031,3158.5 L 1051.02,3158.5 L 1063.31,3159.71 L 1075.13,3163.3 L 1086.02,3169.12 L 1095.57,3176.95 L 1103.4,3186.5 L 1109.22,3197.39 L 1112.81,3209.21 L 1114.02,3221.5 L 1112.81,3233.79 L 1109.22,3245.6 L 1103.4,3256.49 L 1095.57,3266.04 L 1086.02,3273.87 L 1075.13,3279.69 L 1063.31,3283.28 L 1051.02,3284.49 L 988.031,3284.49 L 975.742,3283.28 L 963.925,3279.69 L 953.035,3273.87 L 943.489,3266.04 L 935.655,3256.49 L 929.834,3245.6 L 926.25,3233.79 L 925.039,3221.5 z " style="fill-opacity:1.000000;fill:rgb(233,94,212);stroke:rgb(0,0,0);stroke-width:2"/></g>
<g fill-rule="evenodd"><path d="M 954.094,2960.71 L 955.759,2943.81 L 960.688,2927.56 L 968.692,2912.59 L 979.463,2899.46 L 992.588,2888.69 L 1003.23,2883 L 1003.23,1598.41 L 992.588,1592.73 L 979.463,1581.95 L 968.692,1568.83 L 960.688,1553.85 L 955.759,1537.61 L 954.094,1520.71 L 955.759,1503.81 L 960.688,1487.56 L 968.692,1472.59 L 979.463,1459.46 L 992.588,1448.69 L 1007.56,1440.69 L 1023.81,1435.76 L 1040.71,1434.09 L 1057.61,1435.76 L 1073.85,1440.69 L 1088.83,1448.69 L 1101.95,1459.46 L 1112.73,1472.59 L 1120.73,1487.56 L 1125.66,1503.81 L 1127.32,1520.71 L 1125.66,1537.61 L 1120.73,1553.85 L 1112.73,1568.83 L 1101.95,1581.95 L 1088.83,1592.73 L 1073.85,1600.73 L 1058.35,1605.43 L 1058.35,2875.98 L 1073.85,2880.69 L 1088.83,2888.69 L 1101.95,2899.46 L 1112.73,2912.59 L 1120.73,2927.56 L 1125.66,2943.81 L 1127.32,2960.71 L 1125.66,2977.61 L 1120.73,2993.85 L 1112.73,3008.83 L 1101.95,3021.95 L 1088.83,3032.73 L 1073.85,3040.73 L 1057.61,3045.66 L 1040.71,3047.32 L 1023.81,3045.66 L 1007.56,3040.73 L 992.588,3032.73 L 979.463,3021.95 L 968.692,3008.83 L 960.688,2993.85 L 955.759,2977.61 L 954.094,2960.71 z " style="fill-opacity:1.000000;fill:rgb(171,178,205);stroke:rgb(0,0,0);stroke-width:2"/></g>
<g fill-rule="evenodd"><path d="M 1017.72,1320.71 L 1018.93,1308.42 L 1022.51,1296.6 L 1028.33,1285.71 L 1036.17,1276.17 L 1045.71,1268.33 L 1056.6,1262.51 L 1068.42,1258.93 L 1080.71,1257.72 L 1093,1258.93 L 1104.81,1262.51 L 1115.71,1268.33 L 1125.25,1276.17 L 1133.08,1285.71 L 1138.91,1296.6 L 1142.49,1308.42 L 1143.7,1320.71 L 1142.49,1333 L 1138.91,1344.81 L 1133.08,1355.71 L 1125.25,1365.25 L 1115.71,1373.08 L 1104.81,1378.91 L 1093,1382.49 L 1080.71,1383.7 L 1068.42,1382.49 L 1056.6,1378.91 L 1045.71,1373.08 L 1036.17,1365.25 L 1028.33,1355.71 L 1022.51,1344.81 L 1018.93,1333 L 1017.72,1320.71 z " style="fill-opacity:1.000000;fill:rgb(198,155,180);stroke:rgb(0,0,0);stroke-width:2"/></g>
<g fill-rule="evenodd"><path d="M 1042.6,5040.71 L 1044.87,5017.67 L 1051.59,4995.51 L 1062.5,4975.09 L 1077.19,4957.19 L 1095.09,4942.5 L 1115.51,4931.59 L 1137.67,4924.87 L 1160.71,4922.6 L 1183.75,4924.87 L 1205.91,4931.59 L 1226.33,4942.5 L 1244.23,4957.19 L 1258.91,4975.09 L 1269.83,4995.51 L 1276.55,5017.67 L 1278.82,5040.71 L 1276.55,5063.75 L 1269.83,5085.91 L 1258.91,5106.33 L 1244.23,5124.23 L 1226.33,5138.91 L 1205.91,5149.83 L 1183.75,5156.55 L 1160.71,5158.82 L 1137.67,5156.55 L 1115.51,5149.83 L 1095.09,5138.91 L 1077.19,5124.23 L 1062.5,5106.33 L 1051.59,5085.91 L 1044.87,5063.75 L 1042.6,5040.71 z " style="fill-opacity:1.000000;fill:rgb(84,17,14);stroke:rgb(0,0,0);stroke-width:2"/></g>
<g fill-rule="evenodd"><path d="M 1071.97,4517.56 L 1073.48,4502.2 L 1077.96,4487.43 L 1085.24,4473.81 L 1095.03,4461.88 L 1106.96,4452.09 L 1120.58,4444.81 L 1135.35,4440.33 L 1150.71,4438.82 L 1166.07,4440.33 L 1180.84,4444.81 L 1194.45,4452.09 L 1206.39,4461.88 L 1216.18,4473.81 L 1223.46,4487.43 L 1227.94,4502.2 L 1229.45,4517.56 L 1227.94,4532.92 L 1223.46,4547.69 L 1216.18,4561.3 L 1206.39,4573.24 L 1194.45,4583.03 L 1180.84,4590.31 L 1166.07,4594.79 L 1150.71,4596.3 L 1135.35,4594.79 L 1120.58,4590.31 L 1106.96,4583.03 L 1095.03,4573.24 L 1085.24,4561.3 L 1077.96,4547.69 L 1073.48,4532.92 L 1071.97,4517.56 z " style="fill-opacity:1.000000;fill:rgb(130,116,65);stroke:rgb(0,0,0);stroke-width:2"/></g>
<g fill-rule="evenodd"><path d="M 1071.97,4123.86 L 1073.48,4108.5 L 1077.96,4093.73 L 1085.24,4080.11 L 1095.03,4068.18 L 1106.96,4058.39 L 1120.58,4051.11 L 1135.35,4046.63 L 1150.71,4045.12 L 1166.07,4046.63 L 1180.84,4051.11 L 1194.45,4058.39 L 1206.39,4068.18 L 1216.18,4080.11 L 1223.46,4093.73 L 1227.94,4108.5 L 1229.45,4123.86 L 1227.94,4139.22 L 1223.46,4153.99 L 1216.18,4167.6 L 1206.39,4179.54 L 1194.45,4189.33 L 1180.84,4196.6 L 1166.07,4201.09 L 1150.71,4202.6 L 1135.35,4201.09 L 1120.58,4196.6 L 1106.96,4189.33 L 1095.03,4179.54 L 1085.24,4167.6 L 1077.96,4153.99 L 1073.48,4139.22 L 1071.97,4123.86 z " style="fill-opacity:1.000000;fill:rgb(33,61,220);stroke:rgb(0,0,0);stroke-width:2"/></g>
<g fill-rule="evenodd"><path d="M 1074.09,2600.71 L 1075.76,2583.81 L 1080.69,2567.56 L 1088.69,2552.59 L 1099.46,2539.46 L 1112.59,2528.69 L 1127.56,2520.69 L 1143.81,2515.76 L 1160.71,2514.09 L 1177.61,2515.76 L 1193.85,2520.69 L 1199,2523.44 L 1381.22,2341.22 L 1385.4,2337.79 L 1390.16,2335.25 L 1395.33,2333.68 L 1400.71,2333.15 L 1720.71,2333.15 L 1726.09,2333.68 L 1731.26,2335.25 L 1736.02,2337.79 L 1740.2,2341.22 L 1980.2,2581.22 L 1983.62,2585.4 L 1986.17,2590.16 L 1987.74,2595.33 L 1988.27,2600.71 L 1988.27,2869.29 L 2012.12,2893.15 L 2560.71,2893.15 L 2566.09,2893.68 L 2571.26,2895.25 L 2576.02,2897.79 L 2580.2,2901.22 L 2808.42,3129.45 L 4196.29,3129.45 L 4195.76,3127.68 L 4194.09,3110.79 L 4195.76,3093.89 L 4200.69,3077.64 L 4208.69,3062.67 L 4219.46,3049.54 L 4232.59,3038.77 L 4247.56,3030.77 L 4263.81,3025.84 L 4280.71,3024.17 L 4297.61,3025.84 L 4313.85,3030.77 L 4328.83,3038.77 L 4341.95,3049.54 L 4352.73,3062.67 L 4360.73,3077.64 L 4365.66,3093.89 L 4367.32,3110.79 L 4365.66,3127.68 L 4360.73,3143.93 L 4352.73,3158.91 L 4341.95,3172.03 L 4328.83,3182.8 L 4313.85,3190.81 L 4297.61,3195.74 L 4280.71,3197.4 L 4263.81,3195.74 L 4247.56,3190.81 L 4235.88,3184.57 L 2797.01,3184.57 L 2791.63,3184.04 L 2786.46,3182.47 L 2781.7,3179.92 L 2777.52,3176.49 L 2549.29,2948.27 L 2000.71,2948.27 L 1995.33,2947.74 L 1990.16,2946.17 L 1985.4,2943.62 L 1981.22,2940.2 L 1941.22,2900.2 L 1937.79,2896.02 L 1935.25,2891.26 L 1933.68,2886.09 L 1933.15,2880.71 L 1933.15,2612.12 L 1709.29,2388.27 L 1412.12,2388.27 L 1237.98,2562.41 L 1240.73,2567.56 L 1245.66,2583.81 L 1247.32,2600.71 L 1245.66,2617.61 L 1240.73,2633.85 L 1232.73,2648.83 L 1221.95,2661.95 L 1208.83,2672.73 L 1193.85,2680.73 L 1177.61,2685.66 L 1160.71,2687.32 L 1143.81,2685.66 L 1127.56,2680.73 L 1112.59,2672.73 L 1099.46,2661.95 L 1088.69,2648.83 L 1080.69,2633.85 L 1075.76,2617.61 L 1074.09,2600.71 z " style="fill-opacity:1.000000;fill:rgb(135,112,233);stroke:rgb(0,0,0);stroke-width:2"/></g>
<g fill-rule="evenodd"><path d="M 1257.72,2117.56 L 1258.93,2105.27 L 1262.51,2093.45 L 1268.33,2082.56 L 1276.17,2073.02 L 1285.71,2065.18 L 1296.6,2059.36 L 1308.42,2055.78 L 1320.71,2054.57 L 1333,2055.78 L 1344.81,2059.36 L 1355.71,2065.18 L 1365.25,2073.02 L 1373.08,2082.56 L 1378.91,2093.45 L 1382.49,2105.27 L 1383.7,2117.56 L 1382.49,2129.85 L 1378.91,2141.67 L 1373.08,2152.56 L 1365.25,2162.1 L 1355.71,2169.94 L 1344.81,2175.76 L 1333,2179.34 L 1320.71,2180.55 L 1308.42,2179.34 L 1296.6,2175.76 L 1285.71,2169.94 L 1276.17,2162.1 L 1268.33,2152.56 L 1262.51,2141.67 L 1258.93,2129.85 L 1257.72,2117.56 z " style="fill-opacity:1.000000;fill:rgb(62,161,65);stroke:rgb(0,0,0);stroke-width:2"/></g>
<g fill-rule="evenodd"><path d="M 1257.72,1723.86 L 1258.93,1711.57 L 1262.51,1699.75 L 1268.33,1688.86 L 1276.17,1679.32 L 1285.71,1671.48 L 1296.6,1665.66 L 1308.42,1662.08 L 1320.71,1660.87 L 1333,1662.08 L 1344.81,1665.66 L 1355.71,1671.48 L 1365.25,1679.32 L 1373.08,1688.86 L 1378.91,1699.75 L 1382.49,1711.57 L 1383.7,1723.86 L 1382.49,1736.15 L 1378.91,1747.96 L 1373.08,1758.85 L 1365.25,1768.4 L 1355.71,1776.23 L 1344.81,1782.06 L 1333,1785.64 L 1320.71,1786.85 L 1308.42,1785.64 L 1296.6,1782.06 L 1285.71,1776.23 L 1276.17,1768.4 L 1268.33,1758.85 L 1262.51,1747.96 L 1258.93,1736.15 L 1257.72,1723.86 z " style="fill-opacity:1.000000;fill:rgb(225,252,103);stroke:rgb(0,0,0);stroke-width:2"/></g>
<g fill-rule="evenodd"><path d="M 1257.72,1317.56 L 1258.93,1305.27 L 1262.51,1293.45 L 1268.33,1282.56 L 1276.17,1273.02 L 1285.71,1265.18 L 1296.6,1259.36 L 1308.42,1255.78 L 1320.71,1254.57 L 1333,1255.78 L 1344.81,1259.36 L 1355.71,1265.18 L 1365.25,1273.02 L 1373.08,1282.56 L 1378.91,1293.45 L 1382.49,1305.27 L 1383.7,1317.56 L 1382.49,1329.85 L 1378.91,1341.67 L 1373.08,1352.56 L 1365.25,1362.1 L 1355.71,1369.94 L 1344.81,1375.76 L 1333,1379.34 L 1320.71,1380.55 L 1308.42,1379.34 L 1296.6,1375.76 L 1285.71,1369.94 L 1276.17,1362.1 L 1268.33,1352.56 L 1262.51,1341.67 L 1258.93,1329.85 L 1257.72,1317.56 z " style="fill-opacity:1.000000;fill:rgb(62,1,126);stroke:rgb(0,0,0);stroke-width:2"/></g>
<g fill-rule="evenodd"><path d="M 1257.72,923.858 L 1258.93,911.569 L 1262.51,899.752 L 1268.33,888.862 L 1276.17,879.316 L 1285.71,871.482 L 1296.6,865.661 L 1308.42,862.077 L 1320.71,860.866 L 1333,862.077 L 1344.81,865.661 L 1355.71,871.482 L 1365.25,879.316 L 1373.08,888.862 L 1378.91,899.752 L 1382.49,911.569 L 1383.7,923.858 L 1382.49,936.147 L 1378.91,947.964 L 1373.08,958.855 L 1365.25,968.4 L 1355.71,976.234 L 1344.81,982.055 L 1333,985.64 L 1320.71,986.85 L 1308.42,985.64 L 1296.6,982.055 L 1285.71,976.234 L 1276.17,968.4 L 1268.33,958.855 L 1262.51,947.964 L 1258.93,936.147 L 1257.72,923.858 z " style="fill-opacity:1.000000;fill:rgb(151,234,220);stroke:rgb(0,0,0);stroke-width:2"/></g>
<g fill-rule="evenodd"><path d="M 1286.54,3423.86 L 1287.75,3411.57 L 1291.33,3399.75 L 1297.15,3388.86 L 1304.99,3379.32 L 1314.53,3371.48 L 1325.42,3365.66 L 1337.24,3362.08 L 1349.53,3360.87 L 1361.82,3362.08 L 1373.63,3365.66 L 1384.52,3371.48 L 1394.07,3379.32 L 1401.9,3388.86 L 1407.72,3399.75 L 1411.31,3411.57 L 1412.52,3423.86 L 1411.31,3436.15 L 1407.72,3447.96 L 1401.9,3458.85 L 1394.07,3468.4 L 1384.52,3476.23 L 1373.63,3482.06 L 1361.82,3485.64 L 1349.53,3486.85 L 1337.24,3485.64 L 1325.42,3482.06 L 1314.53,3476.23 L 1304.99,3468.4 L 1297.15,3458.85 L 1291.33,3447.96 L 1287.75,3436.15 L 1286.54,3423.86 z " style="fill-opacity:1.000000;fill:rgb(107,150,143);stroke:rgb(0,0,0);stroke-width:2"/></g>
<g fill-rule="evenodd"><path d="M 1286.54,2623.86 L 1287.75,2611.57 L 1291.33,2599.75 L 1297.15,2588.86 L 1304.99,2579.32 L 1314.53,2571.48 L 1325.42,2565.66 L 1337.24,2562.08 L 1349.53,2560.87 L 1361.82,2562.08 L 1373.63,2565.66 L 1384.52,2571.48 L 1394.07,2579.32 L 1401.9,2588.86 L 1407.72,2599.75 L 1411.31,2611.57 L 1412.52,2623.86 L 1411.31,2636.15 L 1407.72,2647.96 L 1401.9,2658.85 L 1394.07,2668.4 L 1384.52,2676.23 L 1373.63,2682.06 L 1361.82,2685.64 L 1349.53,2686.85 L 1337.24,2685.64 L 1325.42,2682.06 L 1314.53,2676.23 L 1304.99,2668.4 L 1297.15,2658.85 L 1291.33,2647.96 L 1287.75,2636.15 L 1286.54,2623.86 z " style="fill-opacity:1.000000;fill:rgb(56,92,42);stroke:rgb(0,0,0);stroke-width:2"/></g>
<g fill-rule="evenodd"><path d="M 1327.24,3857.32 L 1327.24,3790.39 L 1394.17,3790.39 L 1394.17,3857.32 L 1327.24,3857.32 z " style="fill-opacity:1.000000;fill:rgb(236,176,59);stroke:rgb(0,0,0);stroke-width:2"/></g>
<g fill-rule="evenodd"><path d="M 1442.6,5040.71 L 1444.87,5017.67 L 1451.59,4995.51 L 1462.5,4975.09 L 1477.19,4957.19 L 1495.09,4942.5 L 1515.51,4931.59 L 1537.67,4924.87 L 1560.71,4922.6 L 1583.75,4924.87 L 1605.91,4931.59 L 1626.33,4942.5 L 1644.23,4957.19 L 1658.91,4975.09 L 1669.83,4995.51 L 1676.55,5017.67 L 1678.82,5040.71 L 1676.55,5063.75 L 1669.83,5085.91 L 1658.91,5106.33 L 1644.23,5124.23 L 1626.33,5138.91 L 1605.91,5149.83 L 1583.75,5156.55 L 1560.71,5158.82 L 1537.67,5156.55 L 1515.51,5149.83 L 1495.09,5138.91 L 1477.19,5124.23 L 1462.5,5106.33 L 1451.59,5085.91 L 1444.87,5063.75 L 1442.6,5040.71 z " style="fill-opacity:1.000000;fill:rgb(251,50,175);stroke:rgb(0,0,0);stroke-width:2"/></g>
<g fill-rule="evenodd"><path d="M 1521.97,4517.56 L 1523.48,4502.2 L 1527.96,4487.43 L 1535.24,4473.81 L 1545.03,4461.88 L 1556.96,4452.09 L 1570.58,4444.81 L 1585.35,4440.33 L 1600.71,4438.82 L 1616.07,4440.33 L 1630.84,4444.81 L 1644.45,4452.09 L 1656.39,4461.88 L 1666.18,4473.81 L 1673.46,4487.43 L 1677.94,4502.2 L 1679.45,4517.56 L 1677.94,4532.92 L 1673.46,4547.69 L 1666.18,4561.3 L 1656.39,4573.24 L 1644.45,4583.03 L 1630.84,4590.31 L 1616.07,4594.79 L 1600.71,4596.3 L 1585.35,4594.79 L 1570.58,4590.31 L 1556.96,4583.03 L 1545.03,4573.24 L 1535.24,4561.3 L 1527.96,4547.69 L 1523.48,4532.92 L 1521.97,4517.56 z " style="fill-opacity:1.000000;fill:rgb(60,84,236);stroke:rgb(0,0,0);stroke-width:2"/></g>
<g fill-rule="evenodd"><path d="M 1521.97,4123.86 L 1523.48,4108.5 L 1527.96,4093.73 L 1535.24,4080.11 L 1545.03,4068.18 L 1556.96,4058.39 L 1570.58,4051.11 L 1585.35,4046.63 L 1600.71,4045.12 L 1616.07,4046.63 L 1630.84,4051.11 L 1644.45,4058.39 L 1656.39,4068.18 L 1666.18,4080.11 L 1673.46,4093.73 L 1677.94,4108.5 L 1679.45,4123.86 L 1677.94,4139.22 L 1673.46,4153.99 L 1666.18,4167.6 L 1656.39,4179.54 L 1644.45,4189.33 L 1630.84,4196.6 L 1616.07,4201.09 L 1600.71,4202.6 L 1585.35,4201.09 L 1570.58,4196.6 L 1556.96,4189.33 L 1545.03,4179.54 L 1535.24,4167.6 L 1527.96,4153.99 L 1523.48,4139.22 L 1521.97,4123.86 z " style="fill-opacity:1.000000;fill:rgb(24,219,92);stroke:rgb(0,0,0);stroke-width:2"/></g>
<g fill-rule="evenodd"><path d="M 1601.97,1920.71 L 1603.41,1906.08 L 1607.68,1892.01 L 1614.61,1879.04 L 1623.94,1867.68 L 1635.3,1858.35 L 1648.27,1851.42 L 1662.34,1847.15 L 1676.97,1845.71 L 1684.45,1845.71 L 1699.08,1847.15 L 1713.15,1851.42 L 1726.12,1858.35 L 1737.48,1867.68 L 1746.81,1879.04 L 1753.74,1892.01 L 1758.01,1906.08 L 1759.45,1920.71 L 1758.01,1935.34 L 1753.74,1949.41 L 1746.81,1962.38 L 1737.48,1973.74 L 1726.12,1983.07 L 1713.15,1990 L 1699.08,1994.27 L 1684.45,1995.71 L 1676.97,1995.71 L 1662.34,1994.27 L 1648.27,1990 L 1635.3,1983.07 L 1623.94,1973.74 L 1614.61,1962.38 L 1607.68,1949.41 L 1603.41,1935.34 L 1601.97,1920.71 z " style="fill-opacity:1.000000;fill:rgb(2,26,254);stroke:rgb(0,0,0);stroke-width:2"/></g>
<g fill-rule="evenodd"><path d="M 1601.97,1720.71 L 1603.41,1706.08 L 1607.68,1692.01 L 1614.61,1679.04 L 1623.94,1667.68 L 1635.3,1658.35 L 1648.27,1651.42 L 1662.34,1647.15 L 1676.97,1645.71 L 1684.45,1645.71 L 1699.08,1647.15 L 1713.15,1651.42 L 1726.12,1658.35 L 1737.48,1667.68 L 1746.81,1679.04 L 1753.74,1692.01 L 1758.01,1706.08 L 1759.45,1720.71 L 1758.01,1735.34 L 1753.74,1749.41 L 1746.81,1762.38 L 1737.48,1773.74 L 1726.12,1783.07 L 1713.15,1790 L 1699.08,1794.27 L 1684.45,1795.71 L 1676.97,1795.71 L 1662.34,1794.27 L 1648.27,1790 L 1635.3,1783.07 L 1623.94,1773.74 L 1614.61,1762.38 L 1607.68,1749.41 L 1603.41,1735.34 L 1601.97,1720.71 z " style="fill-opacity:1.000000;fill:rgb(67,251,250);stroke:rgb(0,0,0);stroke-width:2"/></g>
<g fill-rule="evenodd"><path d="M 1601.97,1595.71 L 1601.97,1445.71 L 1759.45,1445.71 L 1759.45,1595.71 L 1601.97,1595.71 z " style="fill-opacity:1.000000;fill:rgb(170,58,251);stroke:rgb(0,0,0);stroke-width:2"/></g>
<g fill-rule="evenodd"><path d="M 1657.72,3440.71 L 1658.93,3428.42 L 1662.51,3416.6 L 1668.33,3405.71 L 1676.17,3396.17 L 1685.71,3388.33 L 1696.6,3382.51 L 1708.42,3378.93 L 1720.71,3377.72 L 1733,3378.93 L 1744.81,3382.51 L 1755.71,3388.33 L 1765.25,3396.17 L 1773.08,3405.71 L 1778.91,3416.6 L 1782.49,3428.42 L 1783.7,3440.71 L 1782.49,3453 L 1778.91,3464.81 L 1773.08,3475.71 L 1765.25,3485.25 L 1755.71,3493.08 L 1744.81,3498.91 L 1733,3502.49 L 1720.71,3503.7 L 1708.42,3502.49 L 1696.6,3498.91 L 1685.71,3493.08 L 1676.17,3485.25 L 1668.33,3475.71 L 1662.51,3464.81 L 1658.93,3453 L 1657.72,3440.71 z " style="fill-opacity:1.000000;fill:rgb(41,209,230);stroke:rgb(0,0,0);stroke-width:2"/></g>
<g fill-rule="evenodd"><path d="M 1657.72,2640.71 L 1658.93,2628.42 L 1662.51,2616.6 L 1668.33,2605.71 L 1676.17,2596.17 L 1685.71,2588.33 L 1696.6,2582.51 L 1708.42,2578.93 L 1720.71,2577.72 L 1733,2578.93 L 1744.81,2582.51 L 1755.71,2588.33 L 1765.25,2596.17 L 1773.08,2605.71 L 1778.91,2616.6 L 1782.49,2628.42 L 1783.7,2640.71 L 1782.49,2653 L 1778.91,2664.81 L 1773.08,2675.71 L 1765.25,2685.25 L 1755.71,2693.08 L 1744.81,2698.91 L 1733,2702.49 L 1720.71,2703.7 L 1708.42,2702.49 L 1696.6,2698.91 L 1685.71,2693.08 L 1676.17,2685.25 L 1668.33,2675.71 L 1662.51,2664.81 L 1658.93,2653 L 1657.72,2640.71 z " style="fill-opacity:1.000000;fill:rgb(5,60,124);stroke:rgb(0,0,0);stroke-width:2"/></g>
<g fill-rule="evenodd"><path d="M 1681.97,935.709 L 1681.97,785.709 L 1839.45,785.709 L 1839.45,935.709 L 1681.97,935.709 z " style="fill-opacity:1.000000;fill:rgb(148,117,216);stroke:rgb(0,0,0);stroke-width:2"/></g>
<g fill-rule="evenodd"><path d="M 1681.97,660.709 L 1683.41,646.077 L 1687.68,632.007 L 1694.61,619.041 L 1703.94,607.676 L 1715.3,598.348 L 1728.27,591.418 L 1742.34,587.15 L 1756.97,585.709 L 1764.45,585.709 L 1779.08,587.15 L 1793.15,591.418 L 1806.12,598.348 L 1817.48,607.676 L 1826.81,619.041 L 1833.74,632.007 L 1838.01,646.077 L 1839.45,660.709 L 1838.01,675.34 L 1833.74,689.41 L 1826.81,702.376 L 1817.48,713.742 L 1806.12,723.069 L 1793.15,730 L 1779.08,734.268 L 1764.45,735.709 L 1756.97,735.709 L 1742.34,734.268 L 1728.27,730 L 1715.3,723.069 L 1703.94,713.742 L 1694.61,702.376 L 1687.68,689.41 L 1683.41,675.34 L 1681.97,660.709 z " style="fill-opacity:1.000000;fill:rgb(190,97,137);stroke:rgb(0,0,0);stroke-width:2"/></g>
<g fill-rule="evenodd"><path d="M 1681.97,460.709 L 1683.41,446.077 L 1687.68,432.007 L 1694.61,419.041 L 1703.94,407.676 L 1715.3,398.348 L 1728.27,391.418 L 1742.34,387.15 L 1756.97,385.709 L 1764.45,385.709 L 1779.08,387.15 L 1793.15,391.418 L 1806.12,398.348 L 1817.48,407.676 L 1826.81,419.041 L 1833.74,432.007 L 1838.01,446.077 L 1839.45,460.709 L 1838.01,475.34 L 1833.74,489.41 L 1826.81,502.376 L 1817.48,513.742 L 1806.12,523.069 L 1793.15,530 L 1779.08,534.268 L 1764.45,535.709 L 1756.97,535.709 L 1742.34,534.268 L 1728.27,530 L 1715.3,523.069 L 1703.94,513.742 L 1694.61,502.376 L 1687.68,489.41 L 1683.41,475.34 L 1681.97,460.709 z " style="fill-opacity:1.000000;fill:rgb(249,92,187);stroke:rgb(0,0,0);stroke-width:2"/></g>
<g fill-rule="evenodd"><path d="M 2007.24,2394.17 L 2007.24,2327.24 L 2074.17,2327.24 L 2074.17,2394.17 L 2007.24,2394.17 z " style="fill-opacity:1.000000;fill:rgb(168,153,15);stroke:rgb(0,0,0);stroke-width:2"/></g>
<g fill-rule="evenodd"><path d="M 2025.59,664.646 L 2026.65,653.893 L 2029.79,643.553 L 2034.88,634.024 L 2041.73,625.671 L 2050.09,618.817 L 2059.62,613.723 L 2069.96,610.587 L 2080.71,609.528 L 2091.46,610.587 L 2101.8,613.723 L 2111.33,618.817 L 2119.68,625.671 L 2126.54,634.024 L 2131.63,643.553 L 2134.77,653.893 L 2135.83,664.646 L 2134.77,675.399 L 2131.63,685.738 L 2126.54,695.268 L 2119.68,703.62 L 2111.33,710.475 L 2101.8,715.568 L 2091.46,718.705 L 2080.71,719.764 L 2069.96,718.705 L 2059.62,715.568 L 2050.09,710.475 L 2041.73,703.62 L 2034.88,695.268 L 2029.79,685.738 L 2026.65,675.399 L 2025.59,664.646 z " style="fill-opacity:1.000000;fill:rgb(149,177,235);stroke:rgb(0,0,0);stroke-width:2"/></g>
<g fill-rule="evenodd"><path d="M 2025.59,464.646 L 2026.65,453.893 L 2029.79,443.553 L 2034.88,434.024 L 2041.73,425.671 L 2050.09,418.817 L 2059.62,413.723 L 2069.96,410.587 L 2080.71,409.528 L 2091.46,410.587 L 2101.8,413.723 L 2111.33,418.817 L 2119.68,425.671 L 2126.54,434.024 L 2131.63,443.553 L 2134.77,453.893 L 2135.83,464.646 L 2134.77,475.399 L 2131.63,485.738 L 2126.54,495.268 L 2119.68,503.62 L 2111.33,510.475 L 2101.8,515.568 L 2091.46,518.705 L 2080.71,519.764 L 2069.96,518.705 L 2059.62,515.568 L 2050.09,510.475 L 2041.73,503.62 L 2034.88,495.268 L 2029.79,485.738 L 2026.65,475.399 L 2025.59,464.646 z " style="fill-opacity:1.000000;fill:rgb(241,179,5);stroke:rgb(0,0,0);stroke-width:2"/></g>
<g fill-rule="evenodd"><path d="M 2083.41,4280.71 L 2084.69,4267.65 L 2088.5,4255.1 L 2094.69,4243.52 L 2103.01,4233.38 L 2113.15,4225.06 L 2124.72,4218.87 L 2137.28,4215.07 L 2150.33,4213.78 L 2163.39,4215.07 L 2175.95,4218.87 L 2187.52,4225.06 L 2197.66,4233.38 L 2205.98,4243.52 L 2212.17,4255.1 L 2215.98,4267.65 L 2217.26,4280.71 L 2215.98,4293.77 L 2212.17,4306.32 L 2205.98,4317.89 L 2197.66,4328.03 L 2187.52,4336.36 L 2175.95,4342.54 L 2163.39,4346.35 L 2150.33,4347.64 L 2137.28,4346.35 L 2124.72,4342.54 L 2113.15,4336.36 L 2103.01,4328.03 L 2094.69,4317.89 L 2088.5,4306.32 L 2084.69,4293.77 L 2083.41,4280.71 z " style="fill-opacity:1.000000;fill:rgb(239,247,0);stroke:rgb(0,0,0);stroke-width:2"/></g>
<g fill-rule="evenodd"><path d="M 2083.41,4080.71 L 2084.69,4067.65 L 2088.5,4055.1 L 2094.69,4043.52 L 2103.01,4033.38 L 2113.15,4025.06 L 2124.72,4018.87 L 2137.28,4015.07 L 2150.33,4013.78 L 2163.39,4015.07 L 2175.95,4018.87 L 2187.52,4025.06 L 2197.66,4033.38 L 2205.98,4043.52 L 2212.17,4055.1 L 2215.98,4067.65 L 2217.26,4080.71 L 2215.98,4093.77 L 2212.17,4106.32 L 2205.98,4117.89 L 2197.66,4128.03 L 2187.52,4136.36 L 2175.95,4142.54 L 2163.39,4146.35 L 2150.33,4147.64 L 2137.28,4146.35 L 2124.72,4142.54 L 2113.15,4136.36 L 2103.01,4128.03 L 2094.69,4117.89 L 2088.5,4106.32 L 2084.69,4093.77 L 2083.41,4080.71 z " style="fill-opacity:1.000000;fill:rgb(233,161,58);stroke:rgb(0,0,0);stroke-width:2"/></g>
<g fill-rule="evenodd"><path d="M 2083.41,3880.71 L 2084.69,3867.65 L 2088.5,3855.1 L 2094.69,3843.52 L 2103.01,3833.38 L 2113.15,3825.06 L 2124.72,3818.87 L 2137.28,3815.07 L 2150.33,3813.78 L 2163.39,3815.07 L 2175.95,3818.87 L 2187.52,3825.06 L 2197.66,3833.38 L 2205.98,3843.52 L 2212.17,3855.1 L 2215.98,3867.65 L 2217.26,3880.71 L 2215.98,3893.77 L 2212.17,3906.32 L 2205.98,3917.89 L 2197.66,3928.03 L 2187.52,3936.36 L 2175.95,3942.54 L 2163.39,3946.35 L 2150.33,3947.64 L 2137.28,3946.35 L 2124.72,3942.54 L 2113.15,3936.36 L 2103.01,3928.03 L 2094.69,3917.89 L 2088.5,3906.32 L 2084.69,3893.77 L 2083.41,3880.71 z " style="fill-opacity:1.000000;fill:rgb(229,202,11);stroke:rgb(0,0,0);stroke-width:2"/></g>
<g fill-rule="evenodd"><path d="M 2083.41,3680.71 L 2084.69,3667.65 L 2088.5,3655.1 L 2094.69,3643.52 L 2103.01,3633.38 L 2113.15,3625.06 L 2124.72,3618.87 L 2137.28,3615.07 L 2150.33,3613.78 L 2163.39,3615.07 L 2175.95,3618.87 L 2187.52,3625.06 L 2197.66,3633.38 L 2205.98,3643.52 L 2212.17,3655.1 L 2215.98,3667.65 L 2217.26,3680.71 L 2215.98,3693.77 L 2212.17,3706.32 L 2205.98,3717.89 L 2197.66,3728.03 L 2187.52,3736.36 L 2175.95,3742.54 L 2163.39,3746.35 L 2150.33,3747.64 L 2137.28,3746.35 L 2124.72,3742.54 L 2113.15,3736.36 L 2103.01,3728.03 L 2094.69,3717.89 L 2088.5,3706.32 L 2084.69,3693.77 L 2083.41,3680.71 z " style="fill-opacity:1.000000;fill:rgb(203,208,72);stroke:rgb(0,0,0);stroke-width:2"/></g>
<g fill-rule="evenodd"><path d="M 2083.41,3480.71 L 2084.69,3467.65 L 2088.5,3455.1 L 2094.69,3443.52 L 2103.01,3433.38 L 2113.15,3425.06 L 2124.72,3418.87 L 2137.28,3415.07 L 2150.33,3413.78 L 2163.39,3415.07 L 2175.95,3418.87 L 2187.52,3425.06 L 2197.66,3433.38 L 2205.98,3443.52 L 2212.17,3455.1 L 2215.98,3467.65 L 2217.26,3480.71 L 2215.98,3493.77 L 2212.17,3506.32 L 2205.98,3517.89 L 2197.66,3528.03 L 2187.52,3536.36 L 2175.95,3542.54 L 2163.39,3546.35 L 2150.33,3547.64 L 2137.28,3546.35 L 2124.72,3542.54 L 2113.15,3536.36 L 2103.01,3528.03 L 2094.69,3517.89 L 2088.5,3506.32 L 2084.69,3493.77 L 2083.41,3480.71 z " style="fill-opacity:1.000000;fill:rgb(71,100,189);stroke:rgb(0,0,0);stroke-width:2"/></g>
<g fill-rule="evenodd"><path d="M 2127.24,2674.17 L 2127.24,2607.24 L 2194.17,2607.24 L 2194.17,2674.17 L 2127.24,2674.17 z " style="fill-opacity:1.000000;fill:rgb(31,35,30);stroke:rgb(0,0,0);stroke-width:2"/></g>
<g fill-rule="evenodd"><path d="M 2161.97,1717.56 L 2163.48,1702.2 L 2167.96,1687.43 L 2175.24,1673.81 L 2185.03,1661.88 L 2196.96,1652.09 L 2210.58,1644.81 L 2225.35,1640.33 L 2240.71,1638.82 L 2256.07,1640.33 L 2270.84,1644.81 L 2284.45,1652.09 L 2296.39,1661.88 L 2306.18,1673.81 L 2313.46,1687.43 L 2317.94,1702.2 L 2319.45,1717.56 L 2317.94,1732.92 L 2313.46,1747.69 L 2306.18,1761.3 L 2296.39,1773.24 L 2284.45,1783.03 L 2270.84,1790.31 L 2256.07,1794.79 L 2240.71,1796.3 L 2225.35,1794.79 L 2210.58,1790.31 L 2196.96,1783.03 L 2185.03,1773.24 L 2175.24,1761.3 L 2167.96,1747.69 L 2163.48,1732.92 L 2161.97,1717.56 z " style="fill-opacity:1.000000;fill:rgb(168,28,123);stroke:rgb(0,0,0);stroke-width:2"/></g>
<g fill-rule="evenodd"><path d="M 2161.97,1323.86 L 2163.48,1308.5 L 2167.96,1293.73 L 2175.24,1280.11 L 2185.03,1268.18 L 2196.96,1258.39 L 2210.58,1251.11 L 2225.35,1246.63 L 2240.71,1245.12 L 2256.07,1246.63 L 2270.84,1251.11 L 2284.45,1258.39 L 2296.39,1268.18 L 2306.18,1280.11 L 2313.46,1293.73 L 2317.94,1308.5 L 2319.45,1323.86 L 2317.94,1339.22 L 2313.46,1353.99 L 2306.18,1367.6 L 2296.39,1379.54 L 2284.45,1389.33 L 2270.84,1396.6 L 2256.07,1401.09 L 2240.71,1402.6 L 2225.35,1401.09 L 2210.58,1396.6 L 2196.96,1389.33 L 2185.03,1379.54 L 2175.24,1367.6 L 2167.96,1353.99 L 2163.48,1339.22 L 2161.97,1323.86 z " style="fill-opacity:1.000000;fill:rgb(100,197,20);stroke:rgb(0,0,0);stroke-width:2"/></g>
<g fill-rule="evenodd"><path d="M 2207.24,994.173 L 2207.24,927.244 L 2274.17,927.244 L 2274.17,994.173 L 2207.24,994.173 z " style="fill-opacity:1.000000;fill:rgb(115,90,197);stroke:rgb(0,0,0);stroke-width:2"/></g>
<g fill-rule="evenodd"><path d="M 2247.24,5154.17 L 2247.24,5087.24 L 2314.17,5087.24 L 2314.17,5154.17 L 2247.24,5154.17 z " style="fill-opacity:1.000000;fill:rgb(94,75,121);stroke:rgb(0,0,0);stroke-width:2"/></g>
<g fill-rule="evenodd"><path d="M 2283.41,4327.95 L 2283.41,4233.46 L 2283.78,4229.62 L 2284.9,4225.93 L 2286.72,4222.53 L 2289.17,4219.55 L 2292.15,4217.1 L 2295.56,4215.28 L 2299.25,4214.16 L 2303.09,4213.78 L 2397.58,4213.78 L 2401.42,4214.16 L 2405.11,4215.28 L 2408.52,4217.1 L 2411.5,4219.55 L 2413.95,4222.53 L 2415.77,4225.93 L 2416.89,4229.62 L 2417.26,4233.46 L 2417.26,4327.95 L 2416.89,4331.79 L 2415.77,4335.49 L 2413.95,4338.89 L 2411.5,4341.87 L 2408.52,4344.32 L 2405.11,4346.14 L 2401.42,4347.26 L 2397.58,4347.64 L 2303.09,4347.64 L 2299.25,4347.26 L 2295.56,4346.14 L 2292.15,4344.32 L 2289.17,4341.87 L 2286.72,4338.89 L 2284.9,4335.49 L 2283.78,4331.79 L 2283.41,4327.95 z " style="fill-opacity:1.000000;fill:rgb(99,59,112);stroke:rgb(0,0,0);stroke-width:2"/></g>
<g fill-rule="evenodd"><path d="M 2283.41,4080.71 L 2284.69,4067.65 L 2288.5,4055.1 L 2294.69,4043.52 L 2303.01,4033.38 L 2313.15,4025.06 L 2324.72,4018.87 L 2337.28,4015.07 L 2350.33,4013.78 L 2363.39,4015.07 L 2375.95,4018.87 L 2387.52,4025.06 L 2397.66,4033.38 L 2405.98,4043.52 L 2412.17,4055.1 L 2415.98,4067.65 L 2417.26,4080.71 L 2415.98,4093.77 L 2412.17,4106.32 L 2405.98,4117.89 L 2397.66,4128.03 L 2387.52,4136.36 L 2375.95,4142.54 L 2363.39,4146.35 L 2350.33,4147.64 L 2337.28,4146.35 L 2324.72,4142.54 L 2313.15,4136.36 L 2303.01,4128.03 L 2294.69,4117.89 L 2288.5,4106.32 L 2284.69,4093.77 L 2283.41,4080.71 z " style="fill-opacity:1.000000;fill:rgb(100,36,17);stroke:rgb(0,0,0);stroke-width:2"/></g>
<g fill-rule="evenodd"><path d="M 2283.41,3880.71 L 2284.69,3867.65 L 2288.5,3855.1 L 2294.69,3843.52 L 2303.01,3833.38 L 2313.15,3825.06 L 2324.72,3818.87 L 2337.28,3815.07 L 2350.33,3813.78 L 2363.39,3815.07 L 2375.95,3818.87 L 2387.52,3825.06 L 2397.66,3833.38 L 2405.98,3843.52 L 2412.17,3855.1 L 2415.98,3867.65 L 2417.26,3880.71 L 2415.98,3893.77 L 2412.17,3906.32 L 2405.98,3917.89 L 2397.66,3928.03 L 2387.52,3936.36 L 2375.95,3942.54 L 2363.39,3946.35 L 2350.33,3947.64 L 2337.28,3946.35 L 2324.72,3942.54 L 2313.15,3936.36 L 2303.01,3928.03 L 2294.69,3917.89 L 2288.5,3906.32 L 2284.69,3893.77 L 2283.41,3880.71 z " style="fill-opacity:1.000000;fill:rgb(158,9,220);stroke:rgb(0,0,0);stroke-width:2"/></g>
<g fill-rule="evenodd"><path d="M 2283.41,3680.71 L 2284.69,3667.65 L 2288.5,3655.1 L 2294.69,3643.52 L 2303.01,3633.38 L 2313.15,3625.06 L 2324.72,3618.87 L 2337.28,3615.07 L 2350.33,3613.78 L 2363.39,3615.07 L 2375.95,3618.87 L 2387.52,3625.06 L 2397.66,3633.38 L 2405.98,3643.52 L 2412.17,3655.1 L 2415.98,3667.65 L 2417.26,3680.71 L 2415.98,3693.77 L 2412.17,3706.32 L 2405.98,3717.89 L 2397.66,3728.03 L 2387.52,3736.36 L 2375.95,3742.54 L 2363.39,3746.35 L 2350.33,3747.64 L 2337.28,3746.35 L 2324.72,3742.54 L 2313.15,3736.36 L 2303.01,3728.03 L 2294.69,3717.89 L 2288.5,3706.32 L 2284.69,3693.77 L 2283.41,3680.71 z " style="fill-opacity:1.000000;fill:rgb(170,212,172);stroke:rgb(0,0,0);stroke-width:2"/></g>
<g fill-rule="evenodd"><path d="M 2283.41,3480.71 L 2284.69,3467.65 L 2288.5,3455.1 L 2294.69,3443.52 L 2303.01,3433.38 L 2313.15,3425.06 L 2324.72,3418.87 L 2337.28,3415.07 L 2350.33,3413.78 L 2363.39,3415.07 L 2375.95,3418.87 L 2387.52,3425.06 L 2397.66,3433.38 L 2405.98,3443.52 L 2412.17,3455.1 L 2415.98,3467.65 L 2417.26,3480.71 L 2415.98,3493.77 L 2412.17,3506.32 L 2405.98,3517.89 L 2397.66,3528.03 L 2387.52,3536.36 L 2375.95,3542.54 L 2363.39,3546.35 L 2350.33,3547.64 L 2337.28,3546.35 L 2324.72,3542.54 L 2313.15,3536.36 L 2303.01,3528.03 L 2294.69,3517.89 L 2288.5,3506.32 L 2284.69,3493.77 L 2283.41,3480.71 z " style="fill-opacity:1.000000;fill:rgb(242,27,16);stroke:rgb(0,0,0);stroke-width:2"/></g>
<g fill-rule="evenodd"><path d="M 2594.09,4280.71 L 2595.76,4263.81 L 2600.69,4247.56 L 2608.69,4232.59 L 2619.46,4219.46 L 2632.59,4208.69 L 2647.56,4200.69 L 2653.15,4198.99 L 2653.15,3322.42 L 2647.56,3320.73 L 2632.59,3312.73 L 2619.46,3301.95 L 2608.69,3288.83 L 2600.69,3273.85 L 2595.76,3257.61 L 2594.09,3240.71 L 2595.76,3223.81 L 2600.69,3207.56 L 2608.69,3192.59 L 2619.46,3179.46 L 2632.59,3168.69 L 2647.56,3160.69 L 2663.81,3155.76 L 2680.71,3154.09 L 2697.61,3155.76 L 2713.85,3160.69 L 2728.83,3168.69 L 2741.95,3179.46 L 2752.73,3192.59 L 2760.73,3207.56 L 2765.66,3223.81 L 2767.32,3240.71 L 2765.66,3257.61 L 2760.73,3273.85 L 2752.73,3288.83 L 2741.95,3301.95 L 2728.83,3312.73 L 2713.85,3320.73 L 2708.27,3322.42 L 2708.27,4198.99 L 2713.85,4200.69 L 2728.83,4208.69 L 2741.95,4219.46 L 2752.73,4232.59 L 2760.73,4247.56 L 2765.66,4263.81 L 2767.32,4280.71 L 2765.66,4297.61 L 2760.73,4313.85 L 2752.73,4328.83 L 2741.95,4341.95 L 2728.83,4352.73 L 2713.85,4360.73 L 2697.61,4365.66 L 2680.71,4367.32 L 2663.81,4365.66 L 2647.56,4360.73 L 2632.59,4352.73 L 2619.46,4341.95 L 2608.69,4328.83 L 2600.69,4313.85 L 2595.76,4297.61 L 2594.09,4280.71 z " style="fill-opacity:1.000000;fill:rgb(175,59,51);stroke:rgb(0,0,0);stroke-width:2"/></g>
<g fill-rule="evenodd"><path d="M 2597.72,2772.2 L 2597.72,2709.21 L 2598.93,2696.92 L 2602.51,2685.11 L 2608.33,2674.22 L 2616.17,2664.67 L 2625.71,2656.84 L 2636.6,2651.02 L 2648.42,2647.43 L 2660.71,2646.22 L 2673,2647.43 L 2684.81,2651.02 L 2695.71,2656.84 L 2705.25,2664.67 L 2713.08,2674.22 L 2718.91,2685.11 L 2722.49,2696.92 L 2723.7,2709.21 L 2723.7,2772.2 L 2722.49,2784.49 L 2718.91,2796.31 L 2713.08,2807.2 L 2705.25,2816.75 L 2695.71,2824.58 L 2684.81,2830.4 L 2673,2833.99 L 2660.71,2835.2 L 2648.42,2833.99 L 2636.6,2830.4 L 2625.71,2824.58 L 2616.17,2816.75 L 2608.33,2807.2 L 2602.51,2796.31 L 2598.93,2784.49 L 2597.72,2772.2 z " style="fill-opacity:1.000000;fill:rgb(205,227,80);stroke:rgb(0,0,0);stroke-width:2"/></g>
<g fill-rule="evenodd"><path d="M 2597.72,2172.2 L 2597.72,2109.21 L 2598.93,2096.92 L 2602.51,2085.11 L 2608.33,2074.22 L 2616.17,2064.67 L 2625.71,2056.84 L 2636.6,2051.02 L 2648.42,2047.43 L 2660.71,2046.22 L 2673,2047.43 L 2684.81,2051.02 L 2695.71,2056.84 L 2705.25,2064.67 L 2713.08,2074.22 L 2718.91,2085.11 L 2722.49,2096.92 L 2723.7,2109.21 L 2723.7,2172.2 L 2722.49,2184.49 L 2718.91,2196.31 L 2713.08,2207.2 L 2705.25,2216.75 L 2695.71,2224.58 L 2684.81,2230.4 L 2673,2233.99 L 2660.71,2235.2 L 2648.42,2233.99 L 2636.6,2230.4 L 2625.71,2224.58 L 2616.17,2216.75 L 2608.33,2207.2 L 2602.51,2196.31 L 2598.93,2184.49 L 2597.72,2172.2 z " style="fill-opacity:1.000000;fill:rgb(72,71,21);stroke:rgb(0,0,0);stroke-width:2"/></g>
<g fill-rule="evenodd"><path d="M 2642.6,520.709 L 2644.87,497.666 L 2651.59,475.51 L 2662.5,455.09 L 2677.19,437.192 L 2695.09,422.504 L 2715.51,411.589 L 2737.67,404.868 L 2760.71,402.598 L 2783.75,404.868 L 2805.91,411.589 L 2826.33,422.504 L 2844.23,437.192 L 2858.91,455.09 L 2869.83,475.51 L 2876.55,497.666 L 2878.82,520.709 L 2876.55,543.751 L 2869.83,565.907 L 2858.91,586.327 L 2844.23,604.225 L 2826.33,618.914 L 2805.91,629.828 L 2783.75,636.549 L 2760.71,638.819 L 2737.67,636.549 L 2715.51,629.828 L 2695.09,618.914 L 2677.19,604.225 L 2662.5,586.327 L 2651.59,565.907 L 2644.87,543.751 L 2642.6,520.709 z " style="fill-opacity:1.000000;fill:rgb(92,187,111);stroke:rgb(0,0,0);stroke-width:2"/></g>
<g fill-rule="evenodd"><path d="M 2697.72,1320.71 L 2698.93,1308.42 L 2702.51,1296.6 L 2708.33,1285.71 L 2716.17,1276.17 L 2725.71,1268.33 L 2736.6,1262.51 L 2748.42,1258.93 L 2760.71,1257.72 L 2773,1258.93 L 2784.81,1262.51 L 2795.71,1268.33 L 2805.25,1276.17 L 2813.08,1285.71 L 2818.91,1296.6 L 2822.49,1308.42 L 2823.7,1320.71 L 2822.49,1333 L 2818.91,1344.81 L 2813.08,1355.71 L 2805.25,1365.25 L 2795.71,1373.08 L 2784.81,1378.91 L 2773,1382.49 L 2760.71,1383.7 L 2748.42,1382.49 L 2736.6,1378.91 L 2725.71,1373.08 L 2716.17,1365.25 L 2708.33,1355.71 L 2702.51,1344.81 L 2698.93,1333 L 2697.72,1320.71 z " style="fill-opacity:1.000000;fill:rgb(34,25,186);stroke:rgb(0,0,0);stroke-width:2"/></g>
<g fill-rule="evenodd"><path d="M 2697.72,1080.71 L 2698.93,1068.42 L 2702.51,1056.6 L 2708.33,1045.71 L 2716.17,1036.17 L 2725.71,1028.33 L 2736.6,1022.51 L 2748.42,1018.93 L 2760.71,1017.72 L 2773,1018.93 L 2784.81,1022.51 L 2795.71,1028.33 L 2805.25,1036.17 L 2813.08,1045.71 L 2818.91,1056.6 L 2822.49,1068.42 L 2823.7,1080.71 L 2822.49,1093 L 2818.91,1104.81 L 2813.08,1115.71 L 2805.25,1125.25 L 2795.71,1133.08 L 2784.81,1138.91 L 2773,1142.49 L 2760.71,1143.7 L 2748.42,1142.49 L 2736.6,1138.91 L 2725.71,1133.08 L 2716.17,1125.25 L 2708.33,1115.71 L 2702.51,1104.81 L 2698.93,1093 L 2697.72,1080.71 z " style="fill-opacity:1.000000;fill:rgb(155,125,245);stroke:rgb(0,0,0);stroke-width:2"/></g>
<g fill-rule="evenodd"><path d="M 2754.09,3880.71 L 2755.76,3863.81 L 2760.69,3847.56 L 2768.69,3832.59 L 2779.46,3819.46 L 2792.59,3808.69 L 2807.56,3800.69 L 2813.15,3798.99 L 2813.15,3400.71 L 2813.68,3395.33 L 2815.25,3390.16 L 2817.79,3385.4 L 2821.22,3381.22 L 2981.22,3221.22 L 2985.4,3217.79 L 2990.16,3215.25 L 2995.33,3213.68 L 3000.71,3213.15 L 3260.46,3213.15 L 3265.84,3213.68 L 3271.01,3215.25 L 3275.77,3217.79 L 3279.95,3221.22 L 3311.88,3253.15 L 5269.29,3253.15 L 5443.44,3079 L 5440.69,3073.85 L 5435.76,3057.61 L 5434.09,3040.71 L 5435.76,3023.81 L 5440.69,3007.56 L 5448.69,2992.59 L 5459.46,2979.46 L 5472.59,2968.69 L 5487.56,2960.69 L 5503.81,2955.76 L 5520.71,2954.09 L 5537.61,2955.76 L 5553.85,2960.69 L 5568.83,2968.69 L 5581.95,2979.46 L 5592.73,2992.59 L 5600.73,3007.56 L 5605.66,3023.81 L 5607.32,3040.71 L 5605.66,3057.61 L 5600.73,3073.85 L 5592.73,3088.83 L 5581.95,3101.95 L 5568.83,3112.73 L 5553.85,3120.73 L 5537.61,3125.66 L 5520.71,3127.32 L 5503.81,3125.66 L 5487.56,3120.73 L 5482.41,3117.98 L 5300.2,3300.2 L 5296.02,3303.62 L 5291.26,3306.17 L 5286.09,3307.74 L 5280.71,3308.27 L 3300.46,3308.27 L 3295.08,3307.74 L 3289.91,3306.17 L 3285.15,3303.62 L 3280.97,3300.2 L 3249.05,3268.27 L 3012.12,3268.27 L 2868.27,3412.12 L 2868.27,3798.99 L 2873.85,3800.69 L 2888.83,3808.69 L 2901.95,3819.46 L 2912.73,3832.59 L 2920.73,3847.56 L 2925.66,3863.81 L 2927.32,3880.71 L 2925.66,3897.61 L 2920.73,3913.85 L 2912.73,3928.83 L 2901.95,3941.95 L 2888.83,3952.73 L 2873.85,3960.73 L 2857.61,3965.66 L 2840.71,3967.32 L 2823.81,3965.66 L 2807.56,3960.73 L 2792.59,3952.73 L 2779.46,3941.95 L 2768.69,3928.83 L 2760.69,3913.85 L 2755.76,3897.61 L 2754.09,3880.71 z " style="fill-opacity:1.000000;fill:rgb(11,225,26);stroke:rgb(0,0,0);stroke-width:2"/></g>
<g fill-rule="evenodd"><path d="M 2794.09,4480.71 L 2795.76,4463.81 L 2800.69,4447.56 L 2808.69,4432.59 L 2819.46,4419.46 L 2832.59,4408.69 L 2847.56,4400.69 L 2853.15,4398.99 L 2853.15,4024.44 L 2853.68,4019.07 L 2855.25,4013.9 L 2857.79,4009.13 L 2861.22,4004.96 L 2965,3901.18 L 2965,3780.27 L 2945.47,3760.75 L 2942.04,3756.57 L 2939.5,3751.81 L 2937.93,3746.64 L 2937.4,3741.26 L 2937.4,3436.46 L 2937.93,3431.08 L 2939.5,3425.91 L 2942.04,3421.15 L 2945.47,3416.97 L 3021.22,3341.22 L 3025.4,3337.79 L 3030.16,3335.25 L 3035.33,3333.68 L 3040.71,3333.15 L 3128.94,3333.15 L 3134.63,3322.51 L 3145.4,3309.38 L 3158.53,3298.61 L 3173.5,3290.61 L 3189.75,3285.68 L 3206.65,3284.02 L 3223.54,3285.68 L 3239.79,3290.61 L 3254.77,3298.61 L 3267.89,3309.38 L 3278.66,3322.51 L 3286.67,3337.48 L 3291.6,3353.73 L 3293.26,3370.63 L 3291.6,3387.53 L 3286.67,3403.78 L 3278.66,3418.75 L 3267.89,3431.88 L 3254.77,3442.65 L 3239.79,3450.65 L 3223.54,3455.58 L 3206.65,3457.24 L 3189.75,3455.58 L 3173.5,3450.65 L 3158.53,3442.65 L 3145.4,3431.88 L 3134.63,3418.75 L 3126.63,3403.78 L 3121.92,3388.27 L 3052.12,3388.27 L 2992.52,3447.87 L 2992.52,3729.85 L 3012.04,3749.37 L 3015.47,3753.55 L 3018.02,3758.31 L 3019.59,3763.48 L 3020.12,3768.86 L 3020.12,3912.59 L 3019.59,3917.97 L 3018.02,3923.14 L 3015.47,3927.91 L 3012.04,3932.08 L 2908.27,4035.86 L 2908.27,4398.99 L 2913.85,4400.69 L 2928.83,4408.69 L 2941.95,4419.46 L 2952.73,4432.59 L 2960.73,4447.56 L 2965.66,4463.81 L 2967.32,4480.71 L 2965.66,4497.61 L 2960.73,4513.85 L 2952.73,4528.83 L 2941.95,4541.95 L 2928.83,4552.73 L 2913.85,4560.73 L 2897.61,4565.66 L 2880.71,4567.32 L 2863.81,4565.66 L 2847.56,4560.73 L 2832.59,4552.73 L 2819.46,4541.95 L 2808.69,4528.83 L 2800.69,4513.85 L 2795.76,4497.61 L 2794.09,4480.71 z " style="fill-opacity:1.000000;fill:rgb(28,127,35);stroke:rgb(0,0,0);stroke-width:2"/></g>
<g fill-rule="evenodd"><path d="M 2797.72,2772.2 L 2797.72,2709.21 L 2798.93,2696.92 L 2802.51,2685.11 L 2808.33,2674.22 L 2816.17,2664.67 L 2825.71,2656.84 L 2836.6,2651.02 L 2848.42,2647.43 L 2860.71,2646.22 L 2873,2647.43 L 2884.81,2651.02 L 2895.71,2656.84 L 2905.25,2664.67 L 2913.08,2674.22 L 2918.91,2685.11 L 2922.49,2696.92 L 2923.7,2709.21 L 2923.7,2772.2 L 2922.49,2784.49 L 2918.91,2796.31 L 2913.08,2807.2 L 2905.25,2816.75 L 2895.71,2824.58 L 2884.81,2830.4 L 2873,2833.99 L 2860.71,2835.2 L 2848.42,2833.99 L 2836.6,2830.4 L 2825.71,2824.58 L 2816.17,2816.75 L 2808.33,2807.2 L 2802.51,2796.31 L 2798.93,2784.49 L 2797.72,2772.2 z " style="fill-opacity:1.000000;fill:rgb(248,41,248);stroke:rgb(0,0,0);stroke-width:2"/></g>
<g fill-rule="evenodd"><path d="M 2797.72,2172.2 L 2797.72,2109.21 L 2798.93,2096.92 L 2802.51,2085.11 L 2808.33,2074.22 L 2816.17,2064.67 L 2825.71,2056.84 L 2836.6,2051.02 L 2848.42,2047.43 L 2860.71,2046.22 L 2873,2047.43 L 2884.81,2051.02 L 2895.71,2056.84 L 2905.25,2064.67 L 2913.08,2074.22 L 2918.91,2085.11 L 2922.49,2096.92 L 2923.7,2109.21 L 2923.7,2172.2 L 2922.49,2184.49 L 2918.91,2196.31 L 2913.08,2207.2 L 2905.25,2216.75 L 2895.71,2224.58 L 2884.81,2230.4 L 2873,2233.99 L 2860.71,2235.2 L 2848.42,2233.99 L 2836.6,2230.4 L 2825.71,2224.58 L 2816.17,2216.75 L 2808.33,2207.2 L 2802.51,2196.31 L 2798.93,2184.49 L 2797.72,2172.2 z " style="fill-opacity:1.000000;fill:rgb(164,27,19);stroke:rgb(0,0,0);stroke-width:2"/></g>
<g fill-rule="evenodd"><path d="M 2962.6,5158.82 L 2962.6,4922.6 L 3198.82,4922.6 L 3198.82,5158.82 L 2962.6,5158.82 z " style="fill-opacity:1.000000;fill:rgb(181,202,78);stroke:rgb(0,0,0);stroke-width:2"/></g>
<g fill-rule="evenodd"><path d="M 2997.72,2772.2 L 2997.72,2709.21 L 2998.93,2696.92 L 3002.51,2685.11 L 3008.33,2674.22 L 3016.17,2664.67 L 3025.71,2656.84 L 3036.6,2651.02 L 3048.42,2647.43 L 3060.71,2646.22 L 3073,2647.43 L 3084.81,2651.02 L 3095.71,2656.84 L 3105.25,2664.67 L 3113.08,2674.22 L 3118.91,2685.11 L 3122.49,2696.92 L 3123.7,2709.21 L 3123.7,2772.2 L 3122.49,2784.49 L 3118.91,2796.31 L 3113.08,2807.2 L 3105.25,2816.75 L 3095.71,2824.58 L 3084.81,2830.4 L 3073,2833.99 L 3060.71,2835.2 L 3048.42,2833.99 L 3036.6,2830.4 L 3025.71,2824.58 L 3016.17,2816.75 L 3008.33,2807.2 L 3002.51,2796.31 L 2998.93,2784.49 L 2997.72,2772.2 z " style="fill-opacity:1.000000;fill:rgb(232,152,50);stroke:rgb(0,0,0);stroke-width:2"/></g>
<g fill-rule="evenodd"><path d="M 2997.72,2172.2 L 2997.72,2109.21 L 2998.93,2096.92 L 3002.51,2085.11 L 3008.33,2074.22 L 3016.17,2064.67 L 3025.71,2056.84 L 3036.6,2051.02 L 3048.42,2047.43 L 3060.71,2046.22 L 3073,2047.43 L 3084.81,2051.02 L 3095.71,2056.84 L 3105.25,2064.67 L 3113.08,2074.22 L 3118.91,2085.11 L 3122.49,2096.92 L 3123.7,2109.21 L 3123.7,2172.2 L 3122.49,2184.49 L 3118.91,2196.31 L 3113.08,2207.2 L 3105.25,2216.75 L 3095.71,2224.58 L 3084.81,2230.4 L 3073,2233.99 L 3060.71,2235.2 L 3048.42,2233.99 L 3036.6,2230.4 L 3025.71,2224.58 L 3016.17,2216.75 L 3008.33,2207.2 L 3002.51,2196.31 L 2998.93,2184.49 L 2997.72,2172.2 z " style="fill-opacity:1.000000;fill:rgb(56,224,121);stroke:rgb(0,0,0);stroke-width:2"/></g>
<g fill-rule="evenodd"><path d="M 3008.27,4140.71 L 3009.78,4125.35 L 3014.26,4110.58 L 3021.54,4096.96 L 3031.33,4085.03 L 3043.26,4075.24 L 3056.88,4067.96 L 3071.65,4063.48 L 3087.01,4061.97 L 3102.37,4063.48 L 3117.14,4067.96 L 3130.75,4075.24 L 3142.69,4085.03 L 3152.48,4096.96 L 3159.75,4110.58 L 3164.24,4125.35 L 3165.75,4140.71 L 3164.24,4156.07 L 3159.75,4170.84 L 3152.48,4184.45 L 3142.69,4196.39 L 3130.75,4206.18 L 3117.14,4213.46 L 3102.37,4217.94 L 3087.01,4219.45 L 3071.65,4217.94 L 3056.88,4213.46 L 3043.26,4206.18 L 3031.33,4196.39 L 3021.54,4184.45 L 3014.26,4170.84 L 3009.78,4156.07 L 3008.27,4140.71 z " style="fill-opacity:1.000000;fill:rgb(77,61,52);stroke:rgb(0,0,0);stroke-width:2"/></g>
<g fill-rule="evenodd"><path d="M 3008.27,3690.71 L 3009.78,3675.35 L 3014.26,3660.58 L 3021.54,3646.96 L 3031.33,3635.03 L 3043.26,3625.24 L 3056.88,3617.96 L 3071.65,3613.48 L 3087.01,3611.97 L 3102.37,3613.48 L 3117.14,3617.96 L 3130.75,3625.24 L 3142.69,3635.03 L 3152.48,3646.96 L 3159.75,3660.58 L 3164.24,3675.35 L 3165.75,3690.71 L 3164.24,3706.07 L 3159.75,3720.84 L 3152.48,3734.45 L 3142.69,3746.39 L 3130.75,3756.18 L 3117.14,3763.46 L 3102.37,3767.94 L 3087.01,3769.45 L 3071.65,3767.94 L 3056.88,3763.46 L 3043.26,3756.18 L 3031.33,3746.39 L 3021.54,3734.45 L 3014.26,3720.84 L 3009.78,3706.07 L 3008.27,3690.71 z " style="fill-opacity:1.000000;fill:rgb(188,95,78);stroke:rgb(0,0,0);stroke-width:2"/></g>
<g fill-rule="evenodd"><path d="M 3017.72,4520.71 L 3018.93,4508.42 L 3022.51,4496.6 L 3028.33,4485.71 L 3036.17,4476.17 L 3045.71,4468.33 L 3056.6,4462.51 L 3068.42,4458.93 L 3080.71,4457.72 L 3093,4458.93 L 3104.81,4462.51 L 3115.71,4468.33 L 3125.25,4476.17 L 3133.08,4485.71 L 3138.91,4496.6 L 3142.49,4508.42 L 3143.7,4520.71 L 3142.49,4533 L 3138.91,4544.81 L 3133.08,4555.71 L 3125.25,4565.25 L 3115.71,4573.08 L 3104.81,4578.91 L 3093,4582.49 L 3080.71,4583.7 L 3068.42,4582.49 L 3056.6,4578.91 L 3045.71,4573.08 L 3036.17,4565.25 L 3028.33,4555.71 L 3022.51,4544.81 L 3018.93,4533 L 3017.72,4520.71 z " style="fill-opacity:1.000000;fill:rgb(119,250,203);stroke:rgb(0,0,0);stroke-width:2"/></g>
<g fill-rule="evenodd"><path d="M 3042.6,520.709 L 3044.87,497.666 L 3051.59,475.51 L 3062.5,455.09 L 3077.19,437.192 L 3095.09,422.504 L 3115.51,411.589 L 3137.67,404.868 L 3160.71,402.598 L 3183.75,404.868 L 3205.91,411.589 L 3226.33,422.504 L 3244.23,437.192 L 3258.91,455.09 L 3269.83,475.51 L 3276.55,497.666 L 3278.82,520.709 L 3276.55,543.751 L 3269.83,565.907 L 3258.91,586.327 L 3244.23,604.225 L 3226.33,618.914 L 3205.91,629.828 L 3183.75,636.549 L 3160.71,638.819 L 3137.67,636.549 L 3115.51,629.828 L 3095.09,618.914 L 3077.19,604.225 L 3062.5,586.327 L 3051.59,565.907 L 3044.87,543.751 L 3042.6,520.709 z " style="fill-opacity:1.000000;fill:rgb(108,5,172);stroke:rgb(0,0,0);stroke-width:2"/></g>
<g fill-rule="evenodd"><path d="M 3197.72,2772.2 L 3197.72,2709.21 L 3198.93,2696.92 L 3202.51,2685.11 L 3208.33,2674.22 L 3216.17,2664.67 L 3225.71,2656.84 L 3236.6,2651.02 L 3248.42,2647.43 L 3260.71,2646.22 L 3273,2647.43 L 3284.81,2651.02 L 3295.71,2656.84 L 3305.25,2664.67 L 3313.08,2674.22 L 3318.91,2685.11 L 3322.49,2696.92 L 3323.7,2709.21 L 3323.7,2772.2 L 3322.49,2784.49 L 3318.91,2796.31 L 3313.08,2807.2 L 3305.25,2816.75 L 3295.71,2824.58 L 3284.81,2830.4 L 3273,2833.99 L 3260.71,2835.2 L 3248.42,2833.99 L 3236.6,2830.4 L 3225.71,2824.58 L 3216.17,2816.75 L 3208.33,2807.2 L 3202.51,2796.31 L 3198.93,2784.49 L 3197.72,2772.2 z " style="fill-opacity:1.000000;fill:rgb(134,33,43);stroke:rgb(0,0,0);stroke-width:2"/></g>
<g fill-rule="evenodd"><path d="M 3197.72,2172.2 L 3197.72,2109.21 L 3198.93,2096.92 L 3202.51,2085.11 L 3208.33,2074.22 L 3216.17,2064.67 L 3225.71,2056.84 L 3236.6,2051.02 L 3248.42,2047.43 L 3260.71,2046.22 L 3273,2047.43 L 3284.81,2051.02 L 3295.71,2056.84 L 3305.25,2064.67 L 3313.08,2074.22 L 3318.91,2085.11 L 3322.49,2096.92 L 3323.7,2109.21 L 3323.7,2172.2 L 3322.49,2184.49 L 3318.91,2196.31 L 3313.08,2207.2 L 3305.25,2216.75 L 3295.71,2224.58 L 3284.81,2230.4 L 3273,2233.99 L 3260.71,2235.2 L 3248.42,2233.99 L 3236.6,2230.4 L 3225.71,2224.58 L 3216.17,2216.75 L 3208.33,2207.2 L 3202.51,2196.31 L 3198.93,2184.49 L 3197.72,2172.2 z " style="fill-opacity:1.000000;fill:rgb(170,26,85);stroke:rgb(0,0,0);stroke-width:2"/></g>
<g fill-rule="evenodd"><path d="M 3257.72,1822.67 L 3258.93,1810.38 L 3262.51,1798.56 L 3268.33,1787.67 L 3276.17,1778.13 L 3285.71,1770.29 L 3296.6,1764.47 L 3308.42,1760.89 L 3320.71,1759.68 L 3333,1760.89 L 3344.81,1764.47 L 3355.71,1770.29 L 3365.25,1778.13 L 3373.08,1787.67 L 3378.91,1798.56 L 3382.49,1810.38 L 3383.7,1822.67 L 3382.49,1834.96 L 3378.91,1846.77 L 3373.08,1857.66 L 3365.25,1867.21 L 3355.71,1875.04 L 3344.81,1880.87 L 3333,1884.45 L 3320.71,1885.66 L 3308.42,1884.45 L 3296.6,1880.87 L 3285.71,1875.04 L 3276.17,1867.21 L 3268.33,1857.66 L 3262.51,1846.77 L 3258.93,1834.96 L 3257.72,1822.67 z " style="fill-opacity:1.000000;fill:rgb(162,190,112);stroke:rgb(0,0,0);stroke-width:2"/></g>
<g fill-rule="evenodd"><path d="M 3257.72,1688.81 L 3257.72,1562.83 L 3383.7,1562.83 L 3383.7,1688.81 L 3257.72,1688.81 z " style="fill-opacity:1.000000;fill:rgb(181,115,59);stroke:rgb(0,0,0);stroke-width:2"/></g>
<g fill-rule="evenodd"><path d="M 3362.6,5040.71 L 3364.87,5017.67 L 3371.59,4995.51 L 3382.5,4975.09 L 3397.19,4957.19 L 3415.09,4942.5 L 3435.51,4931.59 L 3457.67,4924.87 L 3480.71,4922.6 L 3503.75,4924.87 L 3525.91,4931.59 L 3546.33,4942.5 L 3564.23,4957.19 L 3578.91,4975.09 L 3589.83,4995.51 L 3596.55,5017.67 L 3598.82,5040.71 L 3596.55,5063.75 L 3589.83,5085.91 L 3578.91,5106.33 L 3564.23,5124.23 L 3546.33,5138.91 L 3525.91,5149.83 L 3503.75,5156.55 L 3480.71,5158.82 L 3457.67,5156.55 L 3435.51,5149.83 L 3415.09,5138.91 L 3397.19,5124.23 L 3382.5,5106.33 L 3371.59,5085.91 L 3364.87,5063.75 L 3362.6,5040.71 z " style="fill-opacity:1.000000;fill:rgb(4,92,211);stroke:rgb(0,0,0);stroke-width:2"/></g>
<g fill-rule="evenodd"><path d="M 3397.72,2772.2 L 3397.72,2709.21 L 3398.93,2696.92 L 3402.51,2685.11 L 3408.33,2674.22 L 3416.17,2664.67 L 3425.71,2656.84 L 3436.6,2651.02 L 3448.42,2647.43 L 3460.71,2646.22 L 3473,2647.43 L 3484.81,2651.02 L 3495.71,2656.84 L 3505.25,2664.67 L 3513.08,2674.22 L 3518.91,2685.11 L 3522.49,2696.92 L 3523.7,2709.21 L 3523.7,2772.2 L 3522.49,2784.49 L 3518.91,2796.31 L 3513.08,2807.2 L 3505.25,2816.75 L 3495.71,2824.58 L 3484.81,2830.4 L 3473,2833.99 L 3460.71,2835.2 L 3448.42,2833.99 L 3436.6,2830.4 L 3425.71,2824.58 L 3416.17,2816.75 L 3408.33,2807.2 L 3402.51,2796.31 L 3398.93,2784.49 L 3397.72,2772.2 z " style="fill-opacity:1.000000;fill:rgb(54,148,179);stroke:rgb(0,0,0);stroke-width:2"/></g>
<g fill-rule="evenodd"><path d="M 3397.72,2172.2 L 3397.72,2109.21 L 3398.93,2096.92 L 3402.51,2085.11 L 3408.33,2074.22 L 3416.17,2064.67 L 3425.71,2056.84 L 3436.6,2051.02 L 3448.42,2047.43 L 3460.71,2046.22 L 3473,2047.43 L 3484.81,2051.02 L 3495.71,2056.84 L 3505.25,2064.67 L 3513.08,2074.22 L 3518.91,2085.11 L 3522.49,2096.92 L 3523.7,2109.21 L 3523.7,2172.2 L 3522.49,2184.49 L 3518.91,2196.31 L 3513.08,2207.2 L 3505.25,2216.75 L 3495.71,2224.58 L 3484.81,2230.4 L 3473,2233.99 L 3460.71,2235.2 L 3448.42,2233.99 L 3436.6,2230.4 L 3425.71,2224.58 L 3416.17,2216.75 L 3408.33,2207.2 L 3402.51,2196.31 L 3398.93,2184.49 L 3397.72,2172.2 z " style="fill-opacity:1.000000;fill:rgb(175,226,240);stroke:rgb(0,0,0);stroke-width:2"/></g>
<g fill-rule="evenodd"><path d="M 3401.97,4140.71 L 3403.48,4125.35 L 3407.96,4110.58 L 3415.24,4096.96 L 3425.03,4085.03 L 3436.96,4075.24 L 3450.58,4067.96 L 3465.35,4063.48 L 3480.71,4061.97 L 3496.07,4063.48 L 3510.84,4067.96 L 3524.45,4075.24 L 3536.39,4085.03 L 3546.18,4096.96 L 3553.46,4110.58 L 3557.94,4125.35 L 3559.45,4140.71 L 3557.94,4156.07 L 3553.46,4170.84 L 3546.18,4184.45 L 3536.39,4196.39 L 3524.45,4206.18 L 3510.84,4213.46 L 3496.07,4217.94 L 3480.71,4219.45 L 3465.35,4217.94 L 3450.58,4213.46 L 3436.96,4206.18 L 3425.03,4196.39 L 3415.24,4184.45 L 3407.96,4170.84 L 3403.48,4156.07 L 3401.97,4140.71 z " style="fill-opacity:1.000000;fill:rgb(228,158,79);stroke:rgb(0,0,0);stroke-width:2"/></g>
<g fill-rule="evenodd"><path d="M 3401.97,3690.71 L 3403.48,3675.35 L 3407.96,3660.58 L 3415.24,3646.96 L 3425.03,3635.03 L 3436.96,3625.24 L 3450.58,3617.96 L 3465.35,3613.48 L 3480.71,3611.97 L 3496.07,3613.48 L 3510.84,3617.96 L 3524.45,3625.24 L 3536.39,3635.03 L 3546.18,3646.96 L 3553.46,3660.58 L 3557.94,3675.35 L 3559.45,3690.71 L 3557.94,3706.07 L 3553.46,3720.84 L 3546.18,3734.45 L 3536.39,3746.39 L 3524.45,3756.18 L 3510.84,3763.46 L 3496.07,3767.94 L 3480.71,3769.45 L 3465.35,3767.94 L 3450.58,3763.46 L 3436.96,3756.18 L 3425.03,3746.39 L 3415.24,3734.45 L 3407.96,3720.84 L 3403.48,3706.07 L 3401.97,3690.71 z " style="fill-opacity:1.000000;fill:rgb(50,21,73);stroke:rgb(0,0,0);stroke-width:2"/></g>
<g fill-rule="evenodd"><path d="M 3442.6,638.819 L 3442.6,402.598 L 3678.82,402.598 L 3678.82,638.819 L 3442.6,638.819 z " style="fill-opacity:1.000000;fill:rgb(253,130,78);stroke:rgb(0,0,0);stroke-width:2"/></g>
<g fill-rule="evenodd"><path d="M 3497.72,1320.71 L 3498.93,1308.42 L 3502.51,1296.6 L 3508.33,1285.71 L 3516.17,1276.17 L 3525.71,1268.33 L 3536.6,1262.51 L 3548.42,1258.93 L 3560.71,1257.72 L 3573,1258.93 L 3584.81,1262.51 L 3595.71,1268.33 L 3605.25,1276.17 L 3613.08,1285.71 L 3618.91,1296.6 L 3622.49,1308.42 L 3623.7,1320.71 L 3622.49,1333 L 3618.91,1344.81 L 3613.08,1355.71 L 3605.25,1365.25 L 3595.71,1373.08 L 3584.81,1378.91 L 3573,1382.49 L 3560.71,1383.7 L 3548.42,1382.49 L 3536.6,1378.91 L 3525.71,1373.08 L 3516.17,1365.25 L 3508.33,1355.71 L 3502.51,1344.81 L 3498.93,1333 L 3497.72,1320.71 z " style="fill-opacity:1.000000;fill:rgb(169,8,112);stroke:rgb(0,0,0);stroke-width:2"/></g>
<g fill-rule="evenodd"><path d="M 3497.72,1080.71 L 3498.93,1068.42 L 3502.51,1056.6 L 3508.33,1045.71 L 3516.17,1036.17 L 3525.71,1028.33 L 3536.6,1022.51 L 3548.42,1018.93 L 3560.71,1017.72 L 3573,1018.93 L 3584.81,1022.51 L 3595.71,1028.33 L 3605.25,1036.17 L 3613.08,1045.71 L 3618.91,1056.6 L 3622.49,1068.42 L 3623.7,1080.71 L 3622.49,1093 L 3618.91,1104.81 L 3613.08,1115.71 L 3605.25,1125.25 L 3595.71,1133.08 L 3584.81,1138.91 L 3573,1142.49 L 3560.71,1143.7 L 3548.42,1142.49 L 3536.6,1138.91 L 3525.71,1133.08 L 3516.17,1125.25 L 3508.33,1115.71 L 3502.51,1104.81 L 3498.93,1093 L 3497.72,1080.71 z " style="fill-opacity:1.000000;fill:rgb(212,178,138);stroke:rgb(0,0,0);stroke-width:2"/></g>
<g fill-rule="evenodd"><path d="M 3597.72,2772.2 L 3597.72,2709.21 L 3598.93,2696.92 L 3602.51,2685.11 L 3608.33,2674.22 L 3616.17,2664.67 L 3625.71,2656.84 L 3636.6,2651.02 L 3648.42,2647.43 L 3660.71,2646.22 L 3673,2647.43 L 3684.81,2651.02 L 3695.71,2656.84 L 3705.25,2664.67 L 3713.08,2674.22 L 3718.91,2685.11 L 3722.49,2696.92 L 3723.7,2709.21 L 3723.7,2772.2 L 3722.49,2784.49 L 3718.91,2796.31 L 3713.08,2807.2 L 3705.25,2816.75 L 3695.71,2824.58 L 3684.81,2830.4 L 3673,2833.99 L 3660.71,2835.2 L 3648.42,2833.99 L 3636.6,2830.4 L 3625.71,2824.58 L 3616.17,2816.75 L 3608.33,2807.2 L 3602.51,2796.31 L 3598.93,2784.49 L 3597.72,2772.2 z " style="fill-opacity:1.000000;fill:rgb(41,84,72);stroke:rgb(0,0,0);stroke-width:2"/></g>
<g fill-rule="evenodd"><path d="M 3597.72,2172.2 L 3597.72,2109.21 L 3598.93,2096.92 L 3602.51,2085.11 L 3608.33,2074.22 L 3616.17,2064.67 L 3625.71,2056.84 L 3636.6,2051.02 L 3648.42,2047.43 L 3660.71,2046.22 L 3673,2047.43 L 3684.81,2051.02 L 3695.71,2056.84 L 3705.25,2064.67 L 3713.08,2074.22 L 3718.91,2085.11 L 3722.49,2096.92 L 3723.7,2109.21 L 3723.7,2172.2 L 3722.49,2184.49 L 3718.91,2196.31 L 3713.08,2207.2 L 3705.25,2216.75 L 3695.71,2224.58 L 3684.81,2230.4 L 3673,2233.99 L 3660.71,2235.2 L 3648.42,2233.99 L 3636.6,2230.4 L 3625.71,2224.58 L 3616.17,2216.75 L 3608.33,2207.2 L 3602.51,2196.31 L 3598.93,2184.49 L 3597.72,2172.2 z " style="fill-opacity:1.000000;fill:rgb(154,10,188);stroke:rgb(0,0,0);stroke-width:2"/></g>
<g fill-rule="evenodd"><path d="M 3610.87,3050.71 L 3612.08,3038.42 L 3615.66,3026.6 L 3621.48,3015.71 L 3629.32,3006.17 L 3638.86,2998.33 L 3649.75,2992.51 L 3661.57,2988.93 L 3673.86,2987.72 L 3686.15,2988.93 L 3697.96,2992.51 L 3708.85,2998.33 L 3718.4,3006.17 L 3726.23,3015.71 L 3732.06,3026.6 L 3735.64,3038.42 L 3736.85,3050.71 L 3735.64,3063 L 3732.06,3074.81 L 3726.23,3085.71 L 3718.4,3095.25 L 3708.85,3103.08 L 3697.96,3108.91 L 3686.15,3112.49 L 3673.86,3113.7 L 3661.57,3112.49 L 3649.75,3108.91 L 3638.86,3103.08 L 3629.32,3095.25 L 3621.48,3085.71 L 3615.66,3074.81 L 3612.08,3063 L 3610.87,3050.71 z " style="fill-opacity:1.000000;fill:rgb(213,14,24);stroke:rgb(0,0,0);stroke-width:2"/></g>
<g fill-rule="evenodd"><path d="M 3660.87,1850.71 L 3662.08,1838.42 L 3665.66,1826.6 L 3671.48,1815.71 L 3679.32,1806.17 L 3688.86,1798.33 L 3699.75,1792.51 L 3711.57,1788.93 L 3723.86,1787.72 L 3736.15,1788.93 L 3747.96,1792.51 L 3758.85,1798.33 L 3768.4,1806.17 L 3776.23,1815.71 L 3782.06,1826.6 L 3785.64,1838.42 L 3786.85,1850.71 L 3785.64,1863 L 3782.06,1874.81 L 3776.23,1885.71 L 3768.4,1895.25 L 3758.85,1903.08 L 3747.96,1908.91 L 3736.15,1912.49 L 3723.86,1913.7 L 3711.57,1912.49 L 3699.75,1908.91 L 3688.86,1903.08 L 3679.32,1895.25 L 3671.48,1885.71 L 3665.66,1874.81 L 3662.08,1863 L 3660.87,1850.71 z " style="fill-opacity:1.000000;fill:rgb(168,68,172);stroke:rgb(0,0,0);stroke-width:2"/></g>
<g fill-rule="evenodd"><path d="M 3762.6,5040.71 L 3764.87,5017.67 L 3771.59,4995.51 L 3782.5,4975.09 L 3797.19,4957.19 L 3815.09,4942.5 L 3835.51,4931.59 L 3857.67,4924.87 L 3880.71,4922.6 L 3903.75,4924.87 L 3925.91,4931.59 L 3946.33,4942.5 L 3964.23,4957.19 L 3978.91,4975.09 L 3989.83,4995.51 L 3996.55,5017.67 L 3998.82,5040.71 L 3996.55,5063.75 L 3989.83,5085.91 L 3978.91,5106.33 L 3964.23,5124.23 L 3946.33,5138.91 L 3925.91,5149.83 L 3903.75,5156.55 L 3880.71,5158.82 L 3857.67,5156.55 L 3835.51,5149.83 L 3815.09,5138.91 L 3797.19,5124.23 L 3782.5,5106.33 L 3771.59,5085.91 L 3764.87,5063.75 L 3762.6,5040.71 z " style="fill-opacity:1.000000;fill:rgb(91,243,142);stroke:rgb(0,0,0);stroke-width:2"/></g>
<g fill-rule="evenodd"><path d="M 3770.87,4240.71 L 3772.08,4228.42 L 3775.66,4216.6 L 3781.48,4205.71 L 3789.32,4196.17 L 3798.86,4188.33 L 3809.75,4182.51 L 3821.57,4178.93 L 3833.86,4177.72 L 3846.15,4178.93 L 3857.96,4182.51 L 3868.85,4188.33 L 3878.4,4196.17 L 3886.23,4205.71 L 3892.06,4216.6 L 3895.64,4228.42 L 3896.85,4240.71 L 3895.64,4253 L 3892.06,4264.81 L 3886.23,4275.71 L 3878.4,4285.25 L 3868.85,4293.08 L 3857.96,4298.91 L 3846.15,4302.49 L 3833.86,4303.7 L 3821.57,4302.49 L 3809.75,4298.91 L 3798.86,4293.08 L 3789.32,4285.25 L 3781.48,4275.71 L 3775.66,4264.81 L 3772.08,4253 L 3770.87,4240.71 z " style="fill-opacity:1.000000;fill:rgb(76,215,45);stroke:rgb(0,0,0);stroke-width:2"/></g>
<g fill-rule="evenodd"><path d="M 3770.87,3440.71 L 3772.08,3428.42 L 3775.66,3416.6 L 3781.48,3405.71 L 3789.32,3396.17 L 3798.86,3388.33 L 3809.75,3382.51 L 3821.57,3378.93 L 3833.86,3377.72 L 3846.15,3378.93 L 3857.96,3382.51 L 3868.85,3388.33 L 3878.4,3396.17 L 3886.23,3405.71 L 3892.06,3416.6 L 3895.64,3428.42 L 3896.85,3440.71 L 3895.64,3453 L 3892.06,3464.81 L 3886.23,3475.71 L 3878.4,3485.25 L 3868.85,3493.08 L 3857.96,3498.91 L 3846.15,3502.49 L 3833.86,3503.7 L 3821.57,3502.49 L 3809.75,3498.91 L 3798.86,3493.08 L 3789.32,3485.25 L 3781.48,3475.71 L 3775.66,3464.81 L 3772.08,3453 L 3770.87,3440.71 z " style="fill-opacity:1.000000;fill:rgb(155,9,66);stroke:rgb(0,0,0);stroke-width:2"/></g>
<g fill-rule="evenodd"><path d="M 3797.72,2772.2 L 3797.72,2709.21 L 3798.93,2696.92 L 3802.51,2685.11 L 3808.33,2674.22 L 3816.17,2664.67 L 3825.71,2656.84 L 3836.6,2651.02 L 3848.42,2647.43 L 3860.71,2646.22 L 3873,2647.43 L 3884.81,2651.02 L 3895.71,2656.84 L 3905.25,2664.67 L 3913.08,2674.22 L 3918.91,2685.11 L 3922.49,2696.92 L 3923.7,2709.21 L 3923.7,2772.2 L 3922.49,2784.49 L 3918.91,2796.31 L 3913.08,2807.2 L 3905.25,2816.75 L 3895.71,2824.58 L 3884.81,2830.4 L 3873,2833.99 L 3860.71,2835.2 L 3848.42,2833.99 L 3836.6,2830.4 L 3825.71,2824.58 L 3816.17,2816.75 L 3808.33,2807.2 L 3802.51,2796.31 L 3798.93,2784.49 L 3797.72,2772.2 z " style="fill-opacity:1.000000;fill:rgb(229,6,196);stroke:rgb(0,0,0);stroke-width:2"/></g>
<g fill-rule="evenodd"><path d="M 3797.72,2172.2 L 3797.72,2109.21 L 3798.93,2096.92 L 3802.51,2085.11 L 3808.33,2074.22 L 3816.17,2064.67 L 3825.71,2056.84 L 3836.6,2051.02 L 3848.42,2047.43 L 3860.71,2046.22 L 3873,2047.43 L 3884.81,2051.02 L 3895.71,2056.84 L 3905.25,2064.67 L 3913.08,2074.22 L 3918.91,2085.11 L 3922.49,2096.92 L 3923.7,2109.21 L 3923.7,2172.2 L 3922.49,2184.49 L 3918.91,2196.31 L 3913.08,2207.2 L 3905.25,2216.75 L 3895.71,2224.58 L 3884.81,2230.4 L 3873,2233.99 L 3860.71,2235.2 L 3848.42,2233.99 L 3836.6,2230.4 L 3825.71,2224.58 L 3816.17,2216.75 L 3808.33,2207.2 L 3802.51,2196.31 L 3798.93,2184.49 L 3797.72,2172.2 z " style="fill-opacity:1.000000;fill:rgb(51,175,205);stroke:rgb(0,0,0);stroke-width:2"/></g>
<g fill-rule="evenodd"><path d="M 3817.72,4520.71 L 3818.93,4508.42 L 3822.51,4496.6 L 3828.33,4485.71 L 3836.17,4476.17 L 3845.71,4468.33 L 3856.6,4462.51 L 3868.42,4458.93 L 3880.71,4457.72 L 3893,4458.93 L 3904.81,4462.51 L 3915.71,4468.33 L 3925.25,4476.17 L 3933.08,4485.71 L 3938.91,4496.6 L 3942.49,4508.42 L 3943.7,4520.71 L 3942.49,4533 L 3938.91,4544.81 L 3933.08,4555.71 L 3925.25,4565.25 L 3915.71,4573.08 L 3904.81,4578.91 L 3893,4582.49 L 3880.71,4583.7 L 3868.42,4582.49 L 3856.6,4578.91 L 3845.71,4573.08 L 3836.17,4565.25 L 3828.33,4555.71 L 3822.51,4544.81 L 3818.93,4533 L 3817.72,4520.71 z " style="fill-opacity:1.000000;fill:rgb(163,132,127);stroke:rgb(0,0,0);stroke-width:2"/></g>
<g fill-rule="evenodd"><path d="M 3857.72,1400.71 L 3858.93,1388.42 L 3862.51,1376.6 L 3868.33,1365.71 L 3876.17,1356.17 L 3885.71,1348.33 L 3896.6,1342.51 L 3908.42,1338.93 L 3920.71,1337.72 L 3933,1338.93 L 3944.81,1342.51 L 3955.71,1348.33 L 3965.25,1356.17 L 3973.08,1365.71 L 3978.91,1376.6 L 3982.49,1388.42 L 3983.7,1400.71 L 3982.49,1413 L 3978.91,1424.81 L 3973.08,1435.71 L 3965.25,1445.25 L 3955.71,1453.08 L 3944.81,1458.91 L 3933,1462.49 L 3920.71,1463.7 L 3908.42,1462.49 L 3896.6,1458.91 L 3885.71,1453.08 L 3876.17,1445.25 L 3868.33,1435.71 L 3862.51,1424.81 L 3858.93,1413 L 3857.72,1400.71 z " style="fill-opacity:1.000000;fill:rgb(45,173,212);stroke:rgb(0,0,0);stroke-width:2"/></g>
<g fill-rule="evenodd"><path d="M 3857.72,1007.01 L 3858.93,994.719 L 3862.51,982.902 L 3868.33,972.011 L 3876.17,962.466 L 3885.71,954.632 L 3896.6,948.811 L 3908.42,945.226 L 3920.71,944.016 L 3933,945.226 L 3944.81,948.811 L 3955.71,954.632 L 3965.25,962.466 L 3973.08,972.011 L 3978.91,982.902 L 3982.49,994.719 L 3983.7,1007.01 L 3982.49,1019.3 L 3978.91,1031.11 L 3973.08,1042 L 3965.25,1051.55 L 3955.71,1059.38 L 3944.81,1065.21 L 3933,1068.79 L 3920.71,1070 L 3908.42,1068.79 L 3896.6,1065.21 L 3885.71,1059.38 L 3876.17,1051.55 L 3868.33,1042 L 3862.51,1031.11 L 3858.93,1019.3 L 3857.72,1007.01 z " style="fill-opacity:1.000000;fill:rgb(118,71,222);stroke:rgb(0,0,0);stroke-width:2"/></g>
<g fill-rule="evenodd"><path d="M 3997.72,2772.2 L 3997.72,2709.21 L 3998.93,2696.92 L 4002.51,2685.11 L 4008.33,2674.22 L 4016.17,2664.67 L 4025.71,2656.84 L 4036.6,2651.02 L 4048.42,2647.43 L 4060.71,2646.22 L 4073,2647.43 L 4084.81,2651.02 L 4095.71,2656.84 L 4105.25,2664.67 L 4113.08,2674.22 L 4118.91,2685.11 L 4122.49,2696.92 L 4123.7,2709.21 L 4123.7,2772.2 L 4122.49,2784.49 L 4118.91,2796.31 L 4113.08,2807.2 L 4105.25,2816.75 L 4095.71,2824.58 L 4084.81,2830.4 L 4073,2833.99 L 4060.71,2835.2 L 4048.42,2833.99 L 4036.6,2830.4 L 4025.71,2824.58 L 4016.17,2816.75 L 4008.33,2807.2 L 4002.51,2796.31 L 3998.93,2784.49 L 3997.72,2772.2 z " style="fill-opacity:1.000000;fill:rgb(50,28,236);stroke:rgb(0,0,0);stroke-width:2"/></g>
<g fill-rule="evenodd"><path d="M 3997.72,2172.2 L 3997.72,2109.21 L 3998.93,2096.92 L 4002.51,2085.11 L 4008.33,2074.22 L 4016.17,2064.67 L 4025.71,2056.84 L 4036.6,2051.02 L 4048.42,2047.43 L 4060.71,2046.22 L 4073,2047.43 L 4084.81,2051.02 L 4095.71,2056.84 L 4105.25,2064.67 L 4113.08,2074.22 L 4118.91,2085.11 L 4122.49,2096.92 L 4123.7,2109.21 L 4123.7,2172.2 L 4122.49,2184.49 L 4118.91,2196.31 L 4113.08,2207.2 L 4105.25,2216.75 L 4095.71,2224.58 L 4084.81,2230.4 L 4073,2233.99 L 4060.71,2235.2 L 4048.42,2233.99 L 4036.6,2230.4 L 4025.71,2224.58 L 4016.17,2216.75 L 4008.33,2207.2 L 4002.51,2196.31 L 3998.93,2184.49 L 3997.72,2172.2 z " style="fill-opacity:1.000000;fill:rgb(74,196,48);stroke:rgb(0,0,0);stroke-width:2"/></g>
<g fill-rule="evenodd"><path d="M 4004.57,3050.71 L 4005.78,3038.42 L 4009.36,3026.6 L 4015.18,3015.71 L 4023.02,3006.17 L 4032.56,2998.33 L 4043.45,2992.51 L 4055.27,2988.93 L 4067.56,2987.72 L 4079.85,2988.93 L 4091.67,2992.51 L 4102.56,2998.33 L 4112.1,3006.17 L 4119.94,3015.71 L 4125.76,3026.6 L 4129.34,3038.42 L 4130.55,3050.71 L 4129.34,3063 L 4125.76,3074.81 L 4119.94,3085.71 L 4112.1,3095.25 L 4102.56,3103.08 L 4091.67,3108.91 L 4079.85,3112.49 L 4067.56,3113.7 L 4055.27,3112.49 L 4043.45,3108.91 L 4032.56,3103.08 L 4023.02,3095.25 L 4015.18,3085.71 L 4009.36,3074.81 L 4005.78,3063 L 4004.57,3050.71 z " style="fill-opacity:1.000000;fill:rgb(246,32,35);stroke:rgb(0,0,0);stroke-width:2"/></g>
<g fill-rule="evenodd"><path d="M 4054.57,1850.71 L 4055.78,1838.42 L 4059.36,1826.6 L 4065.18,1815.71 L 4073.02,1806.17 L 4082.56,1798.33 L 4093.45,1792.51 L 4105.27,1788.93 L 4117.56,1787.72 L 4129.85,1788.93 L 4141.67,1792.51 L 4152.56,1798.33 L 4162.1,1806.17 L 4169.94,1815.71 L 4175.76,1826.6 L 4179.34,1838.42 L 4180.55,1850.71 L 4179.34,1863 L 4175.76,1874.81 L 4169.94,1885.71 L 4162.1,1895.25 L 4152.56,1903.08 L 4141.67,1908.91 L 4129.85,1912.49 L 4117.56,1913.7 L 4105.27,1912.49 L 4093.45,1908.91 L 4082.56,1903.08 L 4073.02,1895.25 L 4065.18,1885.71 L 4059.36,1874.81 L 4055.78,1863 L 4054.57,1850.71 z " style="fill-opacity:1.000000;fill:rgb(133,108,251);stroke:rgb(0,0,0);stroke-width:2"/></g>
<g fill-rule="evenodd"><path d="M 4087.24,4554.17 L 4087.24,4487.24 L 4154.17,4487.24 L 4154.17,4554.17 L 4087.24,4554.17 z " style="fill-opacity:1.000000;fill:rgb(178,7,4);stroke:rgb(0,0,0);stroke-width:2"/></g>
<g fill-rule="evenodd"><path d="M 4139.92,3497.01 L 4141.69,3479.03 L 4146.93,3461.75 L 4155.45,3445.83 L 4166.9,3431.86 L 4180.86,3420.41 L 4196.79,3411.89 L 4214.07,3406.65 L 4232.05,3404.88 L 4250.02,3406.65 L 4267.3,3411.89 L 4283.23,3420.41 L 4297.19,3431.86 L 4308.65,3445.83 L 4317.16,3461.75 L 4322.4,3479.03 L 4324.17,3497.01 L 4322.4,3514.98 L 4317.16,3532.26 L 4308.65,3548.19 L 4297.19,3562.15 L 4283.23,3573.61 L 4267.3,3582.12 L 4250.02,3587.36 L 4232.05,3589.13 L 4214.07,3587.36 L 4196.79,3582.12 L 4180.86,3573.61 L 4166.9,3562.15 L 4155.45,3548.19 L 4146.93,3532.26 L 4141.69,3514.98 L 4139.92,3497.01 z " style="fill-opacity:1.000000;fill:rgb(244,236,11);stroke:rgb(0,0,0);stroke-width:2"/></g>
<g fill-rule="evenodd"><path d="M 4177.72,1397.56 L 4178.93,1385.27 L 4182.51,1373.45 L 4188.33,1362.56 L 4196.17,1353.02 L 4205.71,1345.18 L 4216.6,1339.36 L 4228.42,1335.78 L 4240.71,1334.57 L 4253,1335.78 L 4264.81,1339.36 L 4275.71,1345.18 L 4285.25,1353.02 L 4293.08,1362.56 L 4298.91,1373.45 L 4302.49,1385.27 L 4303.7,1397.56 L 4302.49,1409.85 L 4298.91,1421.67 L 4293.08,1432.56 L 4285.25,1442.1 L 4275.71,1449.94 L 4264.81,1455.76 L 4253,1459.34 L 4240.71,1460.55 L 4228.42,1459.34 L 4216.6,1455.76 L 4205.71,1449.94 L 4196.17,1442.1 L 4188.33,1432.56 L 4182.51,1421.67 L 4178.93,1409.85 L 4177.72,1397.56 z " style="fill-opacity:1.000000;fill:rgb(185,32,186);stroke:rgb(0,0,0);stroke-width:2"/></g>
<g fill-rule="evenodd"><path d="M 4177.72,1003.86 L 4178.93,991.569 L 4182.51,979.752 L 4188.33,968.862 L 4196.17,959.316 L 4205.71,951.482 L 4216.6,945.661 L 4228.42,942.077 L 4240.71,940.866 L 4253,942.077 L 4264.81,945.661 L 4275.71,951.482 L 4285.25,959.316 L 4293.08,968.862 L 4298.91,979.752 L 4302.49,991.569 L 4303.7,1003.86 L 4302.49,1016.15 L 4298.91,1027.96 L 4293.08,1038.85 L 4285.25,1048.4 L 4275.71,1056.23 L 4264.81,1062.06 L 4253,1065.64 L 4240.71,1066.85 L 4228.42,1065.64 L 4216.6,1062.06 L 4205.71,1056.23 L 4196.17,1048.4 L 4188.33,1038.85 L 4182.51,1027.96 L 4178.93,1016.15 L 4177.72,1003.86 z " style="fill-opacity:1.000000;fill:rgb(134,195,62);stroke:rgb(0,0,0);stroke-width:2"/></g>
<g fill-rule="evenodd"><path d="M 4197.72,2772.2 L 4197.72,2709.21 L 4198.93,2696.92 L 4202.51,2685.11 L 4208.33,2674.22 L 4216.17,2664.67 L 4225.71,2656.84 L 4236.6,2651.02 L 4248.42,2647.43 L 4260.71,2646.22 L 4273,2647.43 L 4284.81,2651.02 L 4295.71,2656.84 L 4305.25,2664.67 L 4313.08,2674.22 L 4318.91,2685.11 L 4322.49,2696.92 L 4323.7,2709.21 L 4323.7,2772.2 L 4322.49,2784.49 L 4318.91,2796.31 L 4313.08,2807.2 L 4305.25,2816.75 L 4295.71,2824.58 L 4284.81,2830.4 L 4273,2833.99 L 4260.71,2835.2 L 4248.42,2833.99 L 4236.6,2830.4 L 4225.71,2824.58 L 4216.17,2816.75 L 4208.33,2807.2 L 4202.51,2796.31 L 4198.93,2784.49 L 4197.72,2772.2 z " style="fill-opacity:1.000000;fill:rgb(5,241,236);stroke:rgb(0,0,0);stroke-width:2"/></g>
<g fill-rule="evenodd"><path d="M 4197.72,2172.2 L 4197.72,2109.21 L 4198.93,2096.92 L 4202.51,2085.11 L 4208.33,2074.22 L 4216.17,2064.67 L 4225.71,2056.84 L 4236.6,2051.02 L 4248.42,2047.43 L 4260.71,2046.22 L 4273,2047.43 L 4284.81,2051.02 L 4295.71,2056.84 L 4305.25,2064.67 L 4313.08,2074.22 L 4318.91,2085.11 L 4322.49,2096.92 L 4323.7,2109.21 L 4323.7,2172.2 L 4322.49,2184.49 L 4318.91,2196.31 L 4313.08,2207.2 L 4305.25,2216.75 L 4295.71,2224.58 L 4284.81,2230.4 L 4273,2233.99 L 4260.71,2235.2 L 4248.42,2233.99 L 4236.6,2230.4 L 4225.71,2224.58 L 4216.17,2216.75 L 4208.33,2207.2 L 4202.51,2196.31 L 4198.93,2184.49 L 4197.72,2172.2 z " style="fill-opacity:1.000000;fill:rgb(217,103,51);stroke:rgb(0,0,0);stroke-width:2"/></g>
<g fill-rule="evenodd"><path d="M 4336.77,4284.41 L 4338.54,4266.44 L 4343.78,4249.15 L 4352.3,4233.23 L 4363.75,4219.27 L 4377.72,4207.81 L 4393.64,4199.3 L 4410.92,4194.05 L 4428.9,4192.28 L 4446.87,4194.05 L 4464.15,4199.3 L 4480.08,4207.81 L 4494.04,4219.27 L 4505.5,4233.23 L 4514.01,4249.15 L 4519.25,4266.44 L 4521.02,4284.41 L 4519.25,4302.38 L 4514.01,4319.66 L 4505.5,4335.59 L 4494.04,4349.55 L 4480.08,4361.01 L 4464.15,4369.52 L 4446.87,4374.77 L 4428.9,4376.54 L 4410.92,4374.77 L 4393.64,4369.52 L 4377.72,4361.01 L 4363.75,4349.55 L 4352.3,4335.59 L 4343.78,4319.66 L 4338.54,4302.38 L 4336.77,4284.41 z " style="fill-opacity:1.000000;fill:rgb(183,153,80);stroke:rgb(0,0,0);stroke-width:2"/></g>
<g fill-rule="evenodd"><path d="M 4362.6,5158.82 L 4362.6,4922.6 L 4598.82,4922.6 L 4598.82,5158.82 L 4362.6,5158.82 z " style="fill-opacity:1.000000;fill:rgb(163,227,20);stroke:rgb(0,0,0);stroke-width:2"/></g>
<g fill-rule="evenodd"><path d="M 4397.72,2772.2 L 4397.72,2709.21 L 4398.93,2696.92 L 4402.51,2685.11 L 4408.33,2674.22 L 4416.17,2664.67 L 4425.71,2656.84 L 4436.6,2651.02 L 4448.42,2647.43 L 4460.71,2646.22 L 4473,2647.43 L 4484.81,2651.02 L 4495.71,2656.84 L 4505.25,2664.67 L 4513.08,2674.22 L 4518.91,2685.11 L 4522.49,2696.92 L 4523.7,2709.21 L 4523.7,2772.2 L 4522.49,2784.49 L 4518.91,2796.31 L 4513.08,2807.2 L 4505.25,2816.75 L 4495.71,2824.58 L 4484.81,2830.4 L 4473,2833.99 L 4460.71,2835.2 L 4448.42,2833.99 L 4436.6,2830.4 L 4425.71,2824.58 L 4416.17,2816.75 L 4408.33,2807.2 L 4402.51,2796.31 L 4398.93,2784.49 L 4397.72,2772.2 z " style="fill-opacity:1.000000;fill:rgb(211,217,52);stroke:rgb(0,0,0);stroke-width:2"/></g>
<g fill-rule="evenodd"><path d="M 4397.72,2172.2 L 4397.72,2109.21 L 4398.93,2096.92 L 4402.51,2085.11 L 4408.33,2074.22 L 4416.17,2064.67 L 4425.71,2056.84 L 4436.6,2051.02 L 4448.42,2047.43 L 4460.71,2046.22 L 4473,2047.43 L 4484.81,2051.02 L 4495.71,2056.84 L 4505.25,2064.67 L 4513.08,2074.22 L 4518.91,2085.11 L 4522.49,2096.92 L 4523.7,2109.21 L 4523.7,2172.2 L 4522.49,2184.49 L 4518.91,2196.31 L 4513.08,2207.2 L 4505.25,2216.75 L 4495.71,2224.58 L 4484.81,2230.4 L 4473,2233.99 L 4460.71,2235.2 L 4448.42,2233.99 L 4436.6,2230.4 L 4425.71,2224.58 L 4416.17,2216.75 L 4408.33,2207.2 L 4402.51,2196.31 L 4398.93,2184.49 L 4397.72,2172.2 z " style="fill-opacity:1.000000;fill:rgb(247,94,160);stroke:rgb(0,0,0);stroke-width:2"/></g>
<g fill-rule="evenodd"><path d="M 4407.24,3154.17 L 4407.24,3087.24 L 4474.17,3087.24 L 4474.17,3154.17 L 4407.24,3154.17 z " style="fill-opacity:1.000000;fill:rgb(242,16,168);stroke:rgb(0,0,0);stroke-width:2"/></g>
<g fill-rule="evenodd"><path d="M 4482.6,520.709 L 4484.87,497.666 L 4491.59,475.51 L 4502.5,455.09 L 4517.19,437.192 L 4535.09,422.504 L 4555.51,411.589 L 4577.67,404.868 L 4600.71,402.598 L 4623.75,404.868 L 4645.91,411.589 L 4666.33,422.504 L 4684.23,437.192 L 4698.91,455.09 L 4709.83,475.51 L 4716.55,497.666 L 4718.82,520.709 L 4716.55,543.751 L 4709.83,565.907 L 4698.91,586.327 L 4684.23,604.225 L 4666.33,618.914 L 4645.91,629.828 L 4623.75,636.549 L 4600.71,638.819 L 4577.67,636.549 L 4555.51,629.828 L 4535.09,618.914 L 4517.19,604.225 L 4502.5,586.327 L 4491.59,565.907 L 4484.87,543.751 L 4482.6,520.709 z " style="fill-opacity:1.000000;fill:rgb(246,5,148);stroke:rgb(0,0,0);stroke-width:2"/></g>
<g fill-rule="evenodd"><path d="M 4497.72,1320.71 L 4498.93,1308.42 L 4502.51,1296.6 L 4508.33,1285.71 L 4516.17,1276.17 L 4525.71,1268.33 L 4536.6,1262.51 L 4548.42,1258.93 L 4560.71,1257.72 L 4573,1258.93 L 4584.81,1262.51 L 4595.71,1268.33 L 4605.25,1276.17 L 4613.08,1285.71 L 4618.91,1296.6 L 4622.49,1308.42 L 4623.7,1320.71 L 4622.49,1333 L 4618.91,1344.81 L 4613.08,1355.71 L 4605.25,1365.25 L 4595.71,1373.08 L 4584.81,1378.91 L 4573,1382.49 L 4560.71,1383.7 L 4548.42,1382.49 L 4536.6,1378.91 L 4525.71,1373.08 L 4516.17,1365.25 L 4508.33,1355.71 L 4502.51,1344.81 L 4498.93,1333 L 4497.72,1320.71 z " style="fill-opacity:1.000000;fill:rgb(1,190,180);stroke:rgb(0,0,0);stroke-width:2"/></g>
<g fill-rule="evenodd"><path d="M 4497.72,1080.71 L 4498.93,1068.42 L 4502.51,1056.6 L 4508.33,1045.71 L 4516.17,1036.17 L 4525.71,1028.33 L 4536.6,1022.51 L 4548.42,1018.93 L 4560.71,1017.72 L 4573,1018.93 L 4584.81,1022.51 L 4595.71,1028.33 L 4605.25,1036.17 L 4613.08,1045.71 L 4618.91,1056.6 L 4622.49,1068.42 L 4623.7,1080.71 L 4622.49,1093 L 4618.91,1104.81 L 4613.08,1115.71 L 4605.25,1125.25 L 4595.71,1133.08 L 4584.81,1138.91 L 4573,1142.49 L 4560.71,1143.7 L 4548.42,1142.49 L 4536.6,1138.91 L 4525.71,1133.08 L 4516.17,1125.25 L 4508.33,1115.71 L 4502.51,1104.81 L 4498.93,1093 L 4497.72,1080.71 z " style="fill-opacity:1.000000;fill:rgb(188,68,120);stroke:rgb(0,0,0);stroke-width:2"/></g>
<g fill-rule="evenodd"><path d="M 4533.62,3497.01 L 4535.39,3479.03 L 4540.63,3461.75 L 4549.15,3445.83 L 4560.61,3431.86 L 4574.57,3420.41 L 4590.49,3411.89 L 4607.78,3406.65 L 4625.75,3404.88 L 4643.72,3406.65 L 4661,3411.89 L 4676.93,3420.41 L 4690.89,3431.86 L 4702.35,3445.83 L 4710.86,3461.75 L 4716.1,3479.03 L 4717.87,3497.01 L 4716.1,3514.98 L 4710.86,3532.26 L 4702.35,3548.19 L 4690.89,3562.15 L 4676.93,3573.61 L 4661,3582.12 L 4643.72,3587.36 L 4625.75,3589.13 L 4607.78,3587.36 L 4590.49,3582.12 L 4574.57,3573.61 L 4560.61,3562.15 L 4549.15,3548.19 L 4540.63,3532.26 L 4535.39,3514.98 L 4533.62,3497.01 z " style="fill-opacity:1.000000;fill:rgb(250,73,105);stroke:rgb(0,0,0);stroke-width:2"/></g>
<g fill-rule="evenodd"><path d="M 4597.72,2772.2 L 4597.72,2709.21 L 4598.93,2696.92 L 4602.51,2685.11 L 4608.33,2674.22 L 4616.17,2664.67 L 4625.71,2656.84 L 4636.6,2651.02 L 4648.42,2647.43 L 4660.71,2646.22 L 4673,2647.43 L 4684.81,2651.02 L 4695.71,2656.84 L 4705.25,2664.67 L 4713.08,2674.22 L 4718.91,2685.11 L 4722.49,2696.92 L 4723.7,2709.21 L 4723.7,2772.2 L 4722.49,2784.49 L 4718.91,2796.31 L 4713.08,2807.2 L 4705.25,2816.75 L 4695.71,2824.58 L 4684.81,2830.4 L 4673,2833.99 L 4660.71,2835.2 L 4648.42,2833.99 L 4636.6,2830.4 L 4625.71,2824.58 L 4616.17,2816.75 L 4608.33,2807.2 L 4602.51,2796.31 L 4598.93,2784.49 L 4597.72,2772.2 z " style="fill-opacity:1.000000;fill:rgb(230,35,208);stroke:rgb(0,0,0);stroke-width:2"/></g>
<g fill-rule="evenodd"><path d="M 4597.72,2172.2 L 4597.72,2109.21 L 4598.93,2096.92 L 4602.51,2085.11 L 4608.33,2074.22 L 4616.17,2064.67 L 4625.71,2056.84 L 4636.6,2051.02 L 4648.42,2047.43 L 4660.71,2046.22 L 4673,2047.43 L 4684.81,2051.02 L 4695.71,2056.84 L 4705.25,2064.67 L 4713.08,2074.22 L 4718.91,2085.11 L 4722.49,2096.92 L 4723.7,2109.21 L 4723.7,2172.2 L 4722.49,2184.49 L 4718.91,2196.31 L 4713.08,2207.2 L 4705.25,2216.75 L 4695.71,2224.58 L 4684.81,2230.4 L 4673,2233.99 L 4660.71,2235.2 L 4648.42,2233.99 L 4636.6,2230.4 L 4625.71,2224.58 L 4616.17,2216.75 L 4608.33,2207.2 L 4602.51,2196.31 L 4598.93,2184.49 L 4597.72,2172.2 z " style="fill-opacity:1.000000;fill:rgb(26,218,105);stroke:rgb(0,0,0);stroke-width:2"/></g>
<g fill-rule="evenodd"><path d="M 4762.6,5040.71 L 4764.87,5017.67 L 4771.59,4995.51 L 4782.5,4975.09 L 4797.19,4957.19 L 4815.09,4942.5 L 4835.51,4931.59 L 4857.67,4924.87 L 4880.71,4922.6 L 4903.75,4924.87 L 4925.91,4931.59 L 4946.33,4942.5 L 4964.23,4957.19 L 4978.91,4975.09 L 4989.83,4995.51 L 4996.55,5017.67 L 4998.82,5040.71 L 4996.55,5063.75 L 4989.83,5085.91 L 4978.91,5106.33 L 4964.23,5124.23 L 4946.33,5138.91 L 4925.91,5149.83 L 4903.75,5156.55 L 4880.71,5158.82 L 4857.67,5156.55 L 4835.51,5149.83 L 4815.09,5138.91 L 4797.19,5124.23 L 4782.5,5106.33 L 4771.59,5085.91 L 4764.87,5063.75 L 4762.6,5040.71 z " style="fill-opacity:1.000000;fill:rgb(106,126,76);stroke:rgb(0,0,0);stroke-width:2"/></g>
<g fill-rule="evenodd"><path d="M 4797.72,2772.2 L 4797.72,2709.21 L 4798.93,2696.92 L 4802.51,2685.11 L 4808.33,2674.22 L 4816.17,2664.67 L 4825.71,2656.84 L 4836.6,2651.02 L 4848.42,2647.43 L 4860.71,2646.22 L 4873,2647.43 L 4884.81,2651.02 L 4895.71,2656.84 L 4905.25,2664.67 L 4913.08,2674.22 L 4918.91,2685.11 L 4922.49,2696.92 L 4923.7,2709.21 L 4923.7,2772.2 L 4922.49,2784.49 L 4918.91,2796.31 L 4913.08,2807.2 L 4905.25,2816.75 L 4895.71,2824.58 L 4884.81,2830.4 L 4873,2833.99 L 4860.71,2835.2 L 4848.42,2833.99 L 4836.6,2830.4 L 4825.71,2824.58 L 4816.17,2816.75 L 4808.33,2807.2 L 4802.51,2796.31 L 4798.93,2784.49 L 4797.72,2772.2 z " style="fill-opacity:1.000000;fill:rgb(126,81,37);stroke:rgb(0,0,0);stroke-width:2"/></g>
<g fill-rule="evenodd"><path d="M 4797.72,2172.2 L 4797.72,2109.21 L 4798.93,2096.92 L 4802.51,2085.11 L 4808.33,2074.22 L 4816.17,2064.67 L 4825.71,2056.84 L 4836.6,2051.02 L 4848.42,2047.43 L 4860.71,2046.22 L 4873,2047.43 L 4884.81,2051.02 L 4895.71,2056.84 L 4905.25,2064.67 L 4913.08,2074.22 L 4918.91,2085.11 L 4922.49,2096.92 L 4923.7,2109.21 L 4923.7,2172.2 L 4922.49,2184.49 L 4918.91,2196.31 L 4913.08,2207.2 L 4905.25,2216.75 L 4895.71,2224.58 L 4884.81,2230.4 L 4873,2233.99 L 4860.71,2235.2 L 4848.42,2233.99 L 4836.6,2230.4 L 4825.71,2224.58 L 4816.17,2216.75 L 4808.33,2207.2 L 4802.51,2196.31 L 4798.93,2184.49 L 4797.72,2172.2 z " style="fill-opacity:1.000000;fill:rgb(179,72,132);stroke:rgb(0,0,0);stroke-width:2"/></g>
<g fill-rule="evenodd"><path d="M 4804.96,1827.64 L 4804.96,1693.78 L 4938.82,1693.78 L 4938.82,1827.64 L 4804.96,1827.64 z " style="fill-opacity:1.000000;fill:rgb(83,58,148);stroke:rgb(0,0,0);stroke-width:2"/></g>
<g fill-rule="evenodd"><path d="M 4882.6,520.709 L 4884.87,497.666 L 4891.59,475.51 L 4902.5,455.09 L 4917.19,437.192 L 4935.09,422.504 L 4955.51,411.589 L 4977.67,404.868 L 5000.71,402.598 L 5023.75,404.868 L 5045.91,411.589 L 5066.33,422.504 L 5084.23,437.192 L 5098.91,455.09 L 5109.83,475.51 L 5116.55,497.666 L 5118.82,520.709 L 5116.55,543.751 L 5109.83,565.907 L 5098.91,586.327 L 5084.23,604.225 L 5066.33,618.914 L 5045.91,629.828 L 5023.75,636.549 L 5000.71,638.819 L 4977.67,636.549 L 4955.51,629.828 L 4935.09,618.914 L 4917.19,604.225 L 4902.5,586.327 L 4891.59,565.907 L 4884.87,543.751 L 4882.6,520.709 z " style="fill-opacity:1.000000;fill:rgb(251,49,153);stroke:rgb(0,0,0);stroke-width:2"/></g>
<g fill-rule="evenodd"><path d="M 4997.72,2772.2 L 4997.72,2709.21 L 4998.93,2696.92 L 5002.51,2685.11 L 5008.33,2674.22 L 5016.17,2664.67 L 5025.71,2656.84 L 5036.6,2651.02 L 5048.42,2647.43 L 5060.71,2646.22 L 5073,2647.43 L 5084.81,2651.02 L 5095.71,2656.84 L 5105.25,2664.67 L 5113.08,2674.22 L 5118.91,2685.11 L 5122.49,2696.92 L 5123.7,2709.21 L 5123.7,2772.2 L 5122.49,2784.49 L 5118.91,2796.31 L 5113.08,2807.2 L 5105.25,2816.75 L 5095.71,2824.58 L 5084.81,2830.4 L 5073,2833.99 L 5060.71,2835.2 L 5048.42,2833.99 L 5036.6,2830.4 L 5025.71,2824.58 L 5016.17,2816.75 L 5008.33,2807.2 L 5002.51,2796.31 L 4998.93,2784.49 L 4997.72,2772.2 z " style="fill-opacity:1.000000;fill:rgb(144,50,87);stroke:rgb(0,0,0);stroke-width:2"/></g>
<g fill-rule="evenodd"><path d="M 4997.72,2172.2 L 4997.72,2109.21 L 4998.93,2096.92 L 5002.51,2085.11 L 5008.33,2074.22 L 5016.17,2064.67 L 5025.71,2056.84 L 5036.6,2051.02 L 5048.42,2047.43 L 5060.71,2046.22 L 5073,2047.43 L 5084.81,2051.02 L 5095.71,2056.84 L 5105.25,2064.67 L 5113.08,2074.22 L 5118.91,2085.11 L 5122.49,2096.92 L 5123.7,2109.21 L 5123.7,2172.2 L 5122.49,2184.49 L 5118.91,2196.31 L 5113.08,2207.2 L 5105.25,2216.75 L 5095.71,2224.58 L 5084.81,2230.4 L 5073,2233.99 L 5060.71,2235.2 L 5048.42,2233.99 L 5036.6,2230.4 L 5025.71,2224.58 L 5016.17,2216.75 L 5008.33,2207.2 L 5002.51,2196.31 L 4998.93,2184.49 L 4997.72,2172.2 z " style="fill-opacity:1.000000;fill:rgb(68,238,155);stroke:rgb(0,0,0);stroke-width:2"/></g>
<g fill-rule="evenodd"><path d="M 5004.96,1760.71 L 5006.25,1747.65 L 5010.06,1735.1 L 5016.24,1723.52 L 5024.56,1713.38 L 5034.71,1705.06 L 5046.28,1698.87 L 5058.83,1695.07 L 5071.89,1693.78 L 5084.95,1695.07 L 5097.5,1698.87 L 5109.07,1705.06 L 5119.22,1713.38 L 5127.54,1723.52 L 5133.72,1735.1 L 5137.53,1747.65 L 5138.82,1760.71 L 5137.53,1773.77 L 5133.72,1786.32 L 5127.54,1797.89 L 5119.22,1808.03 L 5109.07,1816.36 L 5097.5,1822.54 L 5084.95,1826.35 L 5071.89,1827.64 L 5058.83,1826.35 L 5046.28,1822.54 L 5034.71,1816.36 L 5024.56,1808.03 L 5016.24,1797.89 L 5010.06,1786.32 L 5006.25,1773.77 L 5004.96,1760.71 z " style="fill-opacity:1.000000;fill:rgb(188,233,229);stroke:rgb(0,0,0);stroke-width:2"/></g>
<g fill-rule="evenodd"><path d="M 5162.6,5158.82 L 5162.6,4922.6 L 5398.82,4922.6 L 5398.82,5158.82 L 5162.6,5158.82 z " style="fill-opacity:1.000000;fill:rgb(37,207,8);stroke:rgb(0,0,0);stroke-width:2"/></g>
<g fill-rule="evenodd"><path d="M 5197.72,2772.2 L 5197.72,2709.21 L 5198.93,2696.92 L 5202.51,2685.11 L 5208.33,2674.22 L 5216.17,2664.67 L 5225.71,2656.84 L 5236.6,2651.02 L 5248.42,2647.43 L 5260.71,2646.22 L 5273,2647.43 L 5284.81,2651.02 L 5295.71,2656.84 L 5305.25,2664.67 L 5313.08,2674.22 L 5318.91,2685.11 L 5322.49,2696.92 L 5323.7,2709.21 L 5323.7,2772.2 L 5322.49,2784.49 L 5318.91,2796.31 L 5313.08,2807.2 L 5305.25,2816.75 L 5295.71,2824.58 L 5284.81,2830.4 L 5273,2833.99 L 5260.71,2835.2 L 5248.42,2833.99 L 5236.6,2830.4 L 5225.71,2824.58 L 5216.17,2816.75 L 5208.33,2807.2 L 5202.51,2796.31 L 5198.93,2784.49 L 5197.72,2772.2 z " style="fill-opacity:1.000000;fill:rgb(245,233,226);stroke:rgb(0,0,0);stroke-width:2"/></g>
<g fill-rule="evenodd"><path d="M 5197.72,2235.2 L 5197.72,2046.22 L 5323.7,2046.22 L 5323.7,2235.2 L 5197.72,2235.2 z " style="fill-opacity:1.000000;fill:rgb(94,83,96);stroke:rgb(0,0,0);stroke-width:2"/></g>
<g fill-rule="evenodd"><path d="M 5204.96,1760.71 L 5206.25,1747.65 L 5210.06,1735.1 L 5216.24,1723.52 L 5224.56,1713.38 L 5234.71,1705.06 L 5246.28,1698.87 L 5258.83,1695.07 L 5271.89,1693.78 L 5284.95,1695.07 L 5297.5,1698.87 L 5309.07,1705.06 L 5319.22,1713.38 L 5327.54,1723.52 L 5333.72,1735.1 L 5337.53,1747.65 L 5338.82,1760.71 L 5337.53,1773.77 L 5333.72,1786.32 L 5327.54,1797.89 L 5319.22,1808.03 L 5309.07,1816.36 L 5297.5,1822.54 L 5284.95,1826.35 L 5271.89,1827.64 L 5258.83,1826.35 L 5246.28,1822.54 L 5234.71,1816.36 L 5224.56,1808.03 L 5216.24,1797.89 L 5210.06,1786.32 L 5206.25,1773.77 L 5204.96,1760.71 z " style="fill-opacity:1.000000;fill:rgb(170,210,178);stroke:rgb(0,0,0);stroke-width:2"/></g>
<g fill-rule="evenodd"><path d="M 5282.6,638.819 L 5282.6,402.598 L 5518.82,402.598 L 5518.82,638.819 L 5282.6,638.819 z " style="fill-opacity:1.000000;fill:rgb(208,133,250);stroke:rgb(0,0,0);stroke-width:2"/></g>
<g fill-rule="evenodd"><path d="M 5297.72,1320.71 L 5298.93,1308.42 L 5302.51,1296.6 L 5308.33,1285.71 L 5316.17,1276.17 L 5325.71,1268.33 L 5336.6,1262.51 L 5348.42,1258.93 L 5360.71,1257.72 L 5373,1258.93 L 5384.81,1262.51 L 5395.71,1268.33 L 5405.25,1276.17 L 5413.08,1285.71 L 5418.91,1296.6 L 5422.49,1308.42 L 5423.7,1320.71 L 5422.49,1333 L 5418.91,1344.81 L 5413.08,1355.71 L 5405.25,1365.25 L 5395.71,1373.08 L 5384.81,1378.91 L 5373,1382.49 L 5360.71,1383.7 L 5348.42,1382.49 L 5336.6,1378.91 L 5325.71,1373.08 L 5316.17,1365.25 L 5308.33,1355.71 L 5302.51,1344.81 L 5298.93,1333 L 5297.72,1320.71 z " style="fill-opacity:1.000000;fill:rgb(84,216,53);stroke:rgb(0,0,0);stroke-width:2"/></g>
<g fill-rule="evenodd"><path d="M 5297.72,1080.71 L 5298.93,1068.42 L 5302.51,1056.6 L 5308.33,1045.71 L 5316.17,1036.17 L 5325.71,1028.33 L 5336.6,1022.51 L 5348.42,1018.93 L 5360.71,1017.72 L 5373,1018.93 L 5384.81,1022.51 L 5395.71,1028.33 L 5405.25,1036.17 L 5413.08,1045.71 L 5418.91,1056.6 L 5422.49,1068.42 L 5423.7,1080.71 L 5422.49,1093 L 5418.91,1104.81 L 5413.08,1115.71 L 5405.25,1125.25 L 5395.71,1133.08 L 5384.81,1138.91 L 5373,1142.49 L 5360.71,1143.7 L 5348.42,1142.49 L 5336.6,1138.91 L 5325.71,1133.08 L 5316.17,1125.25 L 5308.33,1115.71 L 5302.51,1104.81 L 5298.93,1093 L 5297.72,1080.71 z " style="fill-opacity:1.000000;fill:rgb(232,212,102);stroke:rgb(0,0,0);stroke-width:2"/></g>
<g fill-rule="evenodd"><path d="M 5497.72,2840.71 L 5498.93,2828.42 L 5502.51,2816.6 L 5508.33,2805.71 L 5516.17,2796.17 L 5525.71,2788.33 L 5536.6,2782.51 L 5548.42,2778.93 L 5560.71,2777.72 L 5573,2778.93 L 5584.81,2782.51 L 5595.71,2788.33 L 5605.25,2796.17 L 5613.08,2805.71 L 5618.91,2816.6 L 5622.49,2828.42 L 5623.7,2840.71 L 5622.49,2853 L 5618.91,2864.81 L 5613.08,2875.71 L 5605.25,2885.25 L 5595.71,2893.08 L 5584.81,2898.91 L 5573,2902.49 L 5560.71,2903.7 L 5548.42,2902.49 L 5536.6,2898.91 L 5525.71,2893.08 L 5516.17,2885.25 L 5508.33,2875.71 L 5502.51,2864.81 L 5498.93,2853 L 5497.72,2840.71 z " style="fill-opacity:1.000000;fill:rgb(130,100,152);stroke:rgb(0,0,0);stroke-width:2"/></g>
<g fill-rule="evenodd"><path d="M 5497.72,2040.71 L 5498.93,2028.42 L 5502.51,2016.6 L 5508.33,2005.71 L 5516.17,1996.17 L 5525.71,1988.33 L 5536.6,1982.51 L 5548.42,1978.93 L 5560.71,1977.72 L 5573,1978.93 L 5584.81,1982.51 L 5595.71,1988.33 L 5605.25,1996.17 L 5613.08,2005.71 L 5618.91,2016.6 L 5622.49,2028.42 L 5623.7,2040.71 L 5622.49,2053 L 5618.91,2064.81 L 5613.08,2075.71 L 5605.25,2085.25 L 5595.71,2093.08 L 5584.81,2098.91 L 5573,2102.49 L 5560.71,2103.7 L 5548.42,2102.49 L 5536.6,2098.91 L 5525.71,2093.08 L 5516.17,2085.25 L 5508.33,2075.71 L 5502.51,2064.81 L 5498.93,2053 L 5497.72,2040.71 z " style="fill-opacity:1.000000;fill:rgb(217,168,135);stroke:rgb(0,0,0);stroke-width:2"/></g>
<g fill-rule="evenodd"><path d="M 5562.6,5040.71 L 5564.87,5017.67 L 5571.59,4995.51 L 5582.5,4975.09 L 5597.19,4957.19 L 5615.09,4942.5 L 5635.51,4931.59 L 5657.67,4924.87 L 5680.71,4922.6 L 5703.75,4924.87 L 5725.91,4931.59 L 5746.33,4942.5 L 5764.23,4957.19 L 5778.91,4975.09 L 5789.83,4995.51 L 5796.55,5017.67 L 5798.82,5040.71 L 5796.55,5063.75 L 5789.83,5085.91 L 5778.91,5106.33 L 5764.23,5124.23 L 5746.33,5138.91 L 5725.91,5149.83 L 5703.75,5156.55 L 5680.71,5158.82 L 5657.67,5156.55 L 5635.51,5149.83 L 5615.09,5138.91 L 5597.19,5124.23 L 5582.5,5106.33 L 5571.59,5085.91 L 5564.87,5063.75 L 5562.6,5040.71 z " style="fill-opacity:1.000000;fill:rgb(117,101,112);stroke:rgb(0,0,0);stroke-width:2"/></g>
<g fill-rule="evenodd"><path d="M 5617.72,4640.71 L 5618.93,4628.42 L 5622.51,4616.6 L 5628.33,4605.71 L 5636.17,4596.17 L 5645.71,4588.33 L 5656.6,4582.51 L 5668.42,4578.93 L 5680.71,4577.72 L 5693,4578.93 L 5704.81,4582.51 L 5715.71,4588.33 L 5725.25,4596.17 L 5733.08,4605.71 L 5738.91,4616.6 L 5742.49,4628.42 L 5743.7,4640.71 L 5742.49,4653 L 5738.91,4664.81 L 5733.08,4675.71 L 5725.25,4685.25 L 5715.71,4693.08 L 5704.81,4698.91 L 5693,4702.49 L 5680.71,4703.7 L 5668.42,4702.49 L 5656.6,4698.91 L 5645.71,4693.08 L 5636.17,4685.25 L 5628.33,4675.71 L 5622.51,4664.81 L 5618.93,4653 L 5617.72,4640.71 z " style="fill-opacity:1.000000;fill:rgb(90,138,63);stroke:rgb(0,0,0);stroke-width:2"/></g>
<g fill-rule="evenodd"><path d="M 5617.72,3840.71 L 5618.93,3828.42 L 5622.51,3816.6 L 5628.33,3805.71 L 5636.17,3796.17 L 5645.71,3788.33 L 5656.6,3782.51 L 5668.42,3778.93 L 5680.71,3777.72 L 5693,3778.93 L 5704.81,3782.51 L 5715.71,3788.33 L 5725.25,3796.17 L 5733.08,3805.71 L 5738.91,3816.6 L 5742.49,3828.42 L 5743.7,3840.71 L 5742.49,3853 L 5738.91,3864.81 L 5733.08,3875.71 L 5725.25,3885.25 L 5715.71,3893.08 L 5704.81,3898.91 L 5693,3902.49 L 5680.71,3903.7 L 5668.42,3902.49 L 5656.6,3898.91 L 5645.71,3893.08 L 5636.17,3885.25 L 5628.33,3875.71 L 5622.51,3864.81 L 5618.93,3853 L 5617.72,3840.71 z " style="fill-opacity:1.000000;fill:rgb(98,128,41);stroke:rgb(0,0,0);stroke-width:2"/></g>
<g fill-rule="evenodd"><path d="M 5617.72,3637.56 L 5618.93,3625.27 L 5622.51,3613.45 L 5628.33,3602.56 L 5636.17,3593.02 L 5645.71,3585.18 L 5656.6,3579.36 L 5668.42,3575.78 L 5680.71,3574.57 L 5693,3575.78 L 5704.81,3579.36 L 5715.71,3585.18 L 5725.25,3593.02 L 5733.08,3602.56 L 5738.91,3613.45 L 5742.49,3625.27 L 5743.7,3637.56 L 5742.49,3649.85 L 5738.91,3661.67 L 5733.08,3672.56 L 5725.25,3682.1 L 5715.71,3689.94 L 5704.81,3695.76 L 5693,3699.34 L 5680.71,3700.55 L 5668.42,3699.34 L 5656.6,3695.76 L 5645.71,3689.94 L 5636.17,3682.1 L 5628.33,3672.56 L 5622.51,3661.67 L 5618.93,3649.85 L 5617.72,3637.56 z " style="fill-opacity:1.000000;fill:rgb(68,222,124);stroke:rgb(0,0,0);stroke-width:2"/></g>
<g fill-rule="evenodd"><path d="M 5617.72,3243.86 L 5618.93,3231.57 L 5622.51,3219.75 L 5628.33,3208.86 L 5636.17,3199.32 L 5645.71,3191.48 L 5656.6,3185.66 L 5668.42,3182.08 L 5680.71,3180.87 L 5693,3182.08 L 5704.81,3185.66 L 5715.71,3191.48 L 5725.25,3199.32 L 5733.08,3208.86 L 5738.91,3219.75 L 5742.49,3231.57 L 5743.7,3243.86 L 5742.49,3256.15 L 5738.91,3267.96 L 5733.08,3278.85 L 5725.25,3288.4 L 5715.71,3296.23 L 5704.81,3302.06 L 5693,3305.64 L 5680.71,3306.85 L 5668.42,3305.64 L 5656.6,3302.06 L 5645.71,3296.23 L 5636.17,3288.4 L 5628.33,3278.85 L 5622.51,3267.96 L 5618.93,3256.15 L 5617.72,3243.86 z " style="fill-opacity:1.000000;fill:rgb(165,137,78);stroke:rgb(0,0,0);stroke-width:2"/></g>
</svg>
