M48
; DRILL file {KiCad 8.0.4} date 2024-08-16T13:32:26+0200
; FORMAT={-:-/ absolute / metric / decimal}
; #@! TF.CreationDate,2024-08-16T13:32:26+02:00
; #@! TF.GenerationSoftware,Kicad,Pcbnew,8.0.4
; #@! TF.FileFunction,Plated,1,2,PTH
FMAT,2
METRIC
; #@! TA.AperFunction,Plated,PTH,ComponentDrill
T1C0.500
; #@! TA.AperFunction,Plated,PTH,ViaDrill
T2C0.700
; #@! TA.AperFunction,Plated,PTH,ComponentDrill
T3C0.700
; #@! TA.AperFunction,Plated,PTH,ComponentDrill
T4C0.800
; #@! TA.AperFunction,Plated,PTH,ComponentDrill
T5C1.000
; #@! TA.AperFunction,Plated,PTH,ComponentDrill
T6C1.100
; #@! TA.AperFunction,Plated,PTH,ComponentDrill
T7C1.300
; #@! TA.AperFunction,Plated,PTH,ComponentDrill
T8C1.520
%
G90
G05
T1
X5.588Y-54.356
X6.096Y-33.528
X16.256Y-47.538
X24.892Y-28.956
X26.416Y-32.512
X27.686Y-10.16
X27.94Y-64.008
X51.308Y-56.388
X55.372Y-38.608
T2
X12.192Y-18.288
X12.192Y-36.576
X13.716Y-32.004
X33.02Y-40.132
X33.02Y-53.34
X35.052Y-48.26
X35.56Y-55.88
X39.699Y-41.782
X53.34Y-38.482
X69.088Y-37.592
T3
X25.4Y-4.876
X25.4Y-7.416
T4
X2.54Y-15.748
X4.303Y-39.888
X4.303Y-42.428
X4.303Y-44.968
X4.303Y-47.508
X11.43Y-11.43
X11.47Y-7.62
X11.923Y-39.888
X11.923Y-42.428
X11.923Y-44.968
X11.923Y-47.508
X12.7Y-15.748
X13.97Y-11.43
X15.748Y-20.868
X15.748Y-25.868
X16.114Y-32.298
X16.114Y-42.458
X16.47Y-7.62
X16.51Y-11.43
X18.796Y-13.716
X20.828Y-32.512
X20.828Y-42.672
X28.956Y-13.716
X32.766Y-26.162
X32.766Y-33.782
X34.036Y-12.7
X34.036Y-15.748
X35.306Y-26.162
X35.306Y-33.782
X37.846Y-26.162
X37.846Y-33.782
X38.1Y-56.388
X40.386Y-26.162
X40.386Y-33.782
X41.148Y-19.623
X41.148Y-22.123
X42.926Y-26.162
X42.926Y-33.782
X44.196Y-12.7
X44.196Y-15.748
X45.466Y-26.162
X45.466Y-33.782
X45.633Y-37.719
X46.268Y-22.479
X47.665Y-42.672
X47.665Y-52.832
X48.006Y-26.162
X48.006Y-33.782
X48.26Y-56.388
X48.768Y-11.764
X48.768Y-16.764
X50.546Y-26.162
X50.546Y-33.782
X50.633Y-37.719
X51.268Y-22.479
X52.832Y-11.724
X52.832Y-16.724
X53.086Y-26.162
X53.086Y-33.782
X55.626Y-26.162
X55.626Y-33.782
X56.896Y-12.7
X56.896Y-15.748
X58.166Y-26.162
X58.166Y-33.782
X60.706Y-26.162
X60.706Y-33.782
X63.246Y-26.162
X63.246Y-33.782
X65.786Y-26.162
X65.786Y-33.782
X67.056Y-12.7
X67.056Y-15.748
X69.596Y-24.892
X69.596Y-35.052
X71.12Y-40.172
X71.12Y-45.172
X71.12Y-47.752
X71.12Y-57.912
T5
X13.589Y-51.348
X13.589Y-56.348
X19.304Y-51.348
X19.304Y-56.348
X26.284Y-43.18
X26.284Y-45.72
X26.284Y-48.26
X26.284Y-50.8
X26.284Y-53.34
X27.432Y-17.566
X27.432Y-22.566
X28.824Y-43.18
X28.824Y-45.72
X28.824Y-48.26
X28.824Y-50.8
X28.824Y-53.34
X38.18Y-45.847
X38.18Y-51.562
X43.18Y-45.847
X43.18Y-51.562
X60.848Y-21.336
X63.388Y-21.336
X65.928Y-21.336
T6
X20.32Y-18.288
X20.32Y-20.828
X20.32Y-23.368
X21.336Y-4.318
X21.336Y-6.858
X21.336Y-9.398
T7
X52.722Y-43.387
X55.222Y-53.387
X57.722Y-43.387
T8
X6.096Y-5.588
X6.096Y-10.668
X6.096Y-20.828
X6.096Y-25.908
X8.636Y-62.992
X13.716Y-62.992
X18.796Y-62.992
X34.036Y-5.588
X38.1Y-62.992
X39.116Y-5.588
X43.18Y-62.992
X44.196Y-5.588
X48.26Y-62.992
X55.88Y-62.992
X57.404Y-5.588
X60.96Y-62.992
X62.484Y-5.588
X66.04Y-62.992
X67.564Y-5.588
X71.12Y-62.992
M30
